<svg width="311" height="56" viewBox="0 0 311 56" fill="none" xmlns="http://www.w3.org/2000/svg">
<path d="M0 28C0 12.536 12.536 0 28 0H283C298.464 0 311 12.536 311 28C311 43.464 298.464 56 283 56H28C12.536 56 0 43.464 0 28Z" fill="#2F302C"/>
<g clip-path="url(#clip0_44_984)">
<path d="M49.5913 18.7556L42.4896 11.6529C41.6107 10.7765 40.4201 10.2844 39.1789 10.2844C37.9377 10.2844 36.7472 10.7765 35.8682 11.6529L28.7665 18.7556C28.5047 19.0157 28.2972 19.3251 28.1559 19.666C28.0146 20.0069 27.9424 20.3724 27.9435 20.7414V29.9329C27.9435 30.6779 28.2394 31.3923 28.7662 31.9191C29.2929 32.4459 30.0074 32.7418 30.7523 32.7418H47.6055C48.3504 32.7418 49.0649 32.4459 49.5916 31.9191C50.1184 31.3923 50.4143 30.6779 50.4143 29.9329V20.7414C50.4154 20.3724 50.3432 20.0069 50.2019 19.666C50.0606 19.3251 49.8531 19.0157 49.5913 18.7556ZM41.9878 30.8692H36.3701V27.1859C36.3701 26.4409 36.666 25.7265 37.1928 25.1997C37.7195 24.673 38.434 24.377 39.1789 24.377C39.9239 24.377 40.6383 24.673 41.1651 25.1997C41.6918 25.7265 41.9878 26.4409 41.9878 27.1859V30.8692ZM48.5418 29.9329C48.5418 30.1813 48.4431 30.4194 48.2675 30.595C48.0919 30.7706 47.8538 30.8692 47.6055 30.8692H43.8603V27.1859C43.8603 25.9443 43.3671 24.7536 42.4892 23.8756C41.6112 22.9977 40.4205 22.5045 39.1789 22.5045C37.9373 22.5045 36.7466 22.9977 35.8686 23.8756C34.9907 24.7536 34.4975 25.9443 34.4975 27.1859V30.8692H30.7523C30.504 30.8692 30.2659 30.7706 30.0903 30.595C29.9147 30.4194 29.8161 30.1813 29.8161 29.9329V20.7414C29.8169 20.4933 29.9155 20.2555 30.0904 20.0795L37.1921 12.9796C37.7199 12.4543 38.4343 12.1594 39.1789 12.1594C39.9236 12.1594 40.6379 12.4543 41.1657 12.9796L48.2674 20.0823C48.4417 20.2576 48.5402 20.4943 48.5418 20.7414V29.9329Z" fill="#A0E500"/>
</g>
<circle cx="39.1787" cy="42.7355" r="3" fill="#A0E500"/>
<path d="M163.509 27.9823C163.509 28.2804 163.39 28.5663 163.179 28.7771C162.969 28.9878 162.683 29.1063 162.385 29.1063C162.087 29.1063 161.801 28.9878 161.59 28.7771C161.379 28.5663 161.261 28.2804 161.261 27.9823C161.261 27.6842 161.379 27.3983 161.59 27.1875C161.801 26.9767 162.087 26.8583 162.385 26.8583C162.683 26.8583 162.969 26.9767 163.179 27.1875C163.39 27.3983 163.509 27.6842 163.509 27.9823Z" fill="#838383"/>
<path fill-rule="evenodd" clip-rule="evenodd" d="M153.33 18.1473H156.828C158.894 18.1473 160.53 18.1473 161.81 18.3193C163.128 18.4969 164.194 18.8701 165.036 19.7108C166.075 20.7505 166.406 22.142 166.527 23.9483C167.175 24.2327 167.665 24.8362 167.718 25.6006C167.724 25.6691 167.724 25.7422 167.724 25.8096V30.155C167.724 30.2224 167.724 30.2955 167.719 30.3629C167.665 31.1272 167.175 31.732 166.527 32.0175C166.406 33.8226 166.075 35.2141 165.036 36.2538C164.194 37.0945 163.128 37.4677 161.81 37.6453C160.529 37.8173 158.894 37.8173 156.828 37.8173H153.33C151.264 37.8173 149.627 37.8173 148.347 37.6453C147.03 37.4677 145.963 37.0945 145.121 36.2538C144.28 35.4119 143.907 34.3452 143.73 33.0279C143.558 31.7466 143.558 30.1112 143.558 28.0452V27.9194C143.558 25.8535 143.558 24.2169 143.73 22.9367C143.907 21.6194 144.28 20.5527 145.121 19.7108C145.963 18.8701 147.03 18.4969 148.347 18.3193C149.628 18.1473 151.264 18.1473 153.33 18.1473ZM164.822 32.1973H162.643C160.232 32.1973 158.169 30.3674 158.169 27.9823C158.169 25.5972 160.232 23.7673 162.642 23.7673H164.82C164.692 22.26 164.403 21.4631 163.843 20.9034C163.367 20.4279 162.715 20.1424 161.584 19.9907C160.43 19.8356 158.907 19.8333 156.764 19.8333H153.392C151.248 19.8333 149.726 19.8356 148.57 19.9907C147.44 20.1424 146.788 20.4279 146.313 20.9034C145.837 21.3788 145.553 22.0307 145.401 23.1604C145.246 24.3158 145.244 25.8377 145.244 27.9812C145.244 30.1246 145.246 31.6477 145.401 32.8031C145.553 33.9327 145.838 34.5847 146.314 35.0601C146.789 35.5356 147.441 35.8211 148.572 35.9728C149.727 36.1279 151.249 36.1302 153.393 36.1302H156.765C158.908 36.1302 160.431 36.1279 161.587 35.9728C162.716 35.8211 163.368 35.5356 163.844 35.0601C164.405 34.5004 164.693 33.7046 164.822 32.1962M148.054 23.4863C148.054 23.2627 148.143 23.0483 148.301 22.8902C148.459 22.7321 148.673 22.6433 148.897 22.6433H153.393C153.616 22.6433 153.831 22.7321 153.989 22.8902C154.147 23.0483 154.236 23.2627 154.236 23.4863C154.236 23.7099 154.147 23.9243 153.989 24.0824C153.831 24.2405 153.616 24.3293 153.393 24.3293H148.897C148.673 24.3293 148.459 24.2405 148.301 24.0824C148.143 23.9243 148.054 23.7099 148.054 23.4863ZM165.671 25.4533H162.643C161.043 25.4533 159.855 26.6436 159.855 27.9823C159.855 29.321 161.043 30.5113 162.642 30.5113H165.697C165.929 30.4967 166.029 30.3405 166.037 30.246V25.7186C166.029 25.6242 165.929 25.4679 165.697 25.4544L165.671 25.4533Z" fill="#838383"/>
<path d="M275.934 16.6017H266.591C262.532 16.6017 260.112 19.0213 260.112 23.08V32.4239C260.112 35.5571 261.551 37.7091 264.082 38.5231C264.818 38.7795 265.665 38.9022 266.591 38.9022H275.934C276.86 38.9022 277.707 38.7795 278.443 38.5231C280.974 37.7091 282.413 35.5571 282.413 32.4239V23.08C282.413 19.0213 279.993 16.6017 275.934 16.6017ZM280.74 32.4239C280.74 34.8101 279.804 36.3153 277.919 36.9398C276.838 34.8101 274.273 33.2936 271.263 33.2936C268.252 33.2936 265.699 34.7989 264.606 36.9398H264.595C262.733 36.3376 261.785 34.8212 261.785 32.4351V23.08C261.785 19.9356 263.446 18.2742 266.591 18.2742H275.934C279.079 18.2742 280.74 19.9356 280.74 23.08V32.4239Z" fill="#838383"/>
<path d="M271.263 23.2919C269.055 23.2919 267.271 25.0759 267.271 27.2837C267.271 29.4914 269.055 31.2866 271.263 31.2866C273.47 31.2866 275.254 29.4914 275.254 27.2837C275.254 25.0759 273.47 23.2919 271.263 23.2919Z" fill="#838383"/>
<defs>
<clipPath id="clip0_44_984">
<rect width="22.4708" height="22.4708" fill="white" transform="translate(27.9432 10.2645)"/>
</clipPath>
</defs>
</svg>
