<svg width="311" height="56" viewBox="0 0 311 56" fill="none" xmlns="http://www.w3.org/2000/svg">
<path d="M0 28C0 12.536 12.536 0 28 0H283C298.464 0 311 12.536 311 28C311 43.464 298.464 56 283 56H28C12.536 56 0 43.464 0 28Z" fill="#2F302C"/>
<g clip-path="url(#clip0_92_1009)">
<path d="M49.5913 25.2556L42.4896 18.1529C41.6107 17.2765 40.4201 16.7844 39.1789 16.7844C37.9377 16.7844 36.7472 17.2765 35.8682 18.1529L28.7665 25.2556C28.5047 25.5157 28.2972 25.8251 28.1559 26.166C28.0146 26.5069 27.9424 26.8724 27.9435 27.2414V36.4329C27.9435 37.1779 28.2394 37.8923 28.7662 38.4191C29.2929 38.9459 30.0074 39.2418 30.7523 39.2418H47.6055C48.3504 39.2418 49.0649 38.9459 49.5916 38.4191C50.1184 37.8923 50.4143 37.1779 50.4143 36.4329V27.2414C50.4154 26.8724 50.3432 26.5069 50.2019 26.166C50.0606 25.8251 49.8531 25.5157 49.5913 25.2556ZM41.9878 37.3692H36.3701V33.6859C36.3701 32.9409 36.666 32.2265 37.1928 31.6997C37.7195 31.173 38.434 30.877 39.1789 30.877C39.9239 30.877 40.6383 31.173 41.1651 31.6997C41.6918 32.2265 41.9878 32.9409 41.9878 33.6859V37.3692ZM48.5418 36.4329C48.5418 36.6813 48.4431 36.9194 48.2675 37.095C48.0919 37.2706 47.8538 37.3692 47.6055 37.3692H43.8603V33.6859C43.8603 32.4443 43.3671 31.2536 42.4892 30.3756C41.6112 29.4977 40.4205 29.0045 39.1789 29.0045C37.9373 29.0045 36.7466 29.4977 35.8686 30.3756C34.9907 31.2536 34.4975 32.4443 34.4975 33.6859V37.3692H30.7523C30.504 37.3692 30.2659 37.2706 30.0903 37.095C29.9147 36.9194 29.8161 36.6813 29.8161 36.4329V27.2414C29.8169 26.9933 29.9155 26.7555 30.0904 26.5795L37.1921 19.4796C37.7199 18.9543 38.4343 18.6594 39.1789 18.6594C39.9236 18.6594 40.6379 18.9543 41.1657 19.4796L48.2674 26.5823C48.4417 26.7576 48.5402 26.9943 48.5418 27.2414V36.4329Z" fill="#838383"/>
</g>
<path d="M162.951 21.2622C162.951 21.5603 162.832 21.8462 162.622 22.057C162.411 22.2678 162.125 22.3862 161.827 22.3862C161.529 22.3862 161.243 22.2678 161.032 22.057C160.821 21.8462 160.703 21.5603 160.703 21.2622C160.703 20.9641 160.821 20.6782 161.032 20.4674C161.243 20.2566 161.529 20.1382 161.827 20.1382C162.125 20.1382 162.411 20.2566 162.622 20.4674C162.832 20.6782 162.951 20.9641 162.951 21.2622Z" fill="#A0E500"/>
<path fill-rule="evenodd" clip-rule="evenodd" d="M152.772 11.4272H156.27C158.336 11.4272 159.972 11.4272 161.253 11.5992C162.57 11.7768 163.637 12.15 164.478 12.9907C165.517 14.0304 165.849 15.4219 165.969 17.2282C166.617 17.5126 167.107 18.1161 167.16 18.8805C167.166 18.949 167.166 19.0221 167.166 19.0895V23.4349C167.166 23.5023 167.166 23.5754 167.161 23.6428C167.107 24.4072 166.617 25.0119 165.969 25.2974C165.849 27.1025 165.517 28.494 164.478 29.5337C163.637 30.3745 162.57 30.7476 161.253 30.9252C159.971 31.0972 158.336 31.0972 156.27 31.0972H152.772C150.706 31.0972 149.07 31.0972 147.789 30.9252C146.472 30.7476 145.405 30.3745 144.563 29.5337C143.723 28.6918 143.35 27.6252 143.172 26.3078C143 25.0265 143 23.3911 143 21.3252V21.1993C143 19.1334 143 17.4968 143.172 16.2166C143.35 14.8993 143.723 13.8326 144.563 12.9907C145.405 12.15 146.472 11.7768 147.789 11.5992C149.071 11.4272 150.706 11.4272 152.772 11.4272ZM164.264 25.4772H162.085C159.674 25.4772 157.611 23.6473 157.611 21.2622C157.611 18.8771 159.674 17.0472 162.084 17.0472H164.263C164.135 15.5399 163.846 14.743 163.285 14.1833C162.809 13.7078 162.157 13.4223 161.027 13.2706C159.872 13.1155 158.349 13.1132 156.206 13.1132H152.834C150.69 13.1132 149.168 13.1155 148.012 13.2706C146.882 13.4223 146.23 13.7078 145.755 14.1833C145.279 14.6587 144.995 15.3107 144.843 16.4403C144.688 17.5957 144.686 19.1176 144.686 21.2611C144.686 23.4046 144.688 24.9276 144.843 26.083C144.995 27.2127 145.281 27.8646 145.756 28.34C146.231 28.8155 146.883 29.101 148.014 29.2527C149.17 29.4078 150.692 29.4101 152.835 29.4101H156.207C158.35 29.4101 159.873 29.4078 161.029 29.2527C162.159 29.101 162.81 28.8155 163.286 28.34C163.847 27.7803 164.136 26.9845 164.264 25.4761M147.496 16.7662C147.496 16.5427 147.585 16.3282 147.743 16.1701C147.901 16.012 148.115 15.9232 148.339 15.9232H152.835C153.059 15.9232 153.273 16.012 153.431 16.1701C153.589 16.3282 153.678 16.5427 153.678 16.7662C153.678 16.9898 153.589 17.2042 153.431 17.3623C153.273 17.5204 153.059 17.6092 152.835 17.6092H148.339C148.115 17.6092 147.901 17.5204 147.743 17.3623C147.585 17.2042 147.496 16.9898 147.496 16.7662ZM165.114 18.7332H162.085C160.485 18.7332 159.297 19.9235 159.297 21.2622C159.297 22.6009 160.485 23.7912 162.084 23.7912H165.139C165.371 23.7766 165.471 23.6204 165.479 23.5259V18.9985C165.471 18.9041 165.371 18.7478 165.139 18.7343L165.114 18.7332Z" fill="#A0E500"/>
<circle cx="156" cy="43.14" r="3" fill="#A0E500"/>
<path d="M275.934 16.6017H266.591C262.532 16.6017 260.112 19.0213 260.112 23.08V32.4239C260.112 35.5571 261.551 37.7091 264.082 38.5231C264.818 38.7795 265.665 38.9022 266.591 38.9022H275.934C276.86 38.9022 277.707 38.7795 278.443 38.5231C280.974 37.7091 282.413 35.5571 282.413 32.4239V23.08C282.413 19.0213 279.993 16.6017 275.934 16.6017ZM280.74 32.4239C280.74 34.8101 279.804 36.3153 277.919 36.9398C276.838 34.8101 274.273 33.2936 271.263 33.2936C268.252 33.2936 265.699 34.7989 264.606 36.9398H264.595C262.733 36.3376 261.785 34.8212 261.785 32.4351V23.08C261.785 19.9356 263.446 18.2742 266.591 18.2742H275.934C279.079 18.2742 280.74 19.9356 280.74 23.08V32.4239Z" fill="#838383"/>
<path d="M271.263 23.2919C269.055 23.2919 267.271 25.0759 267.271 27.2837C267.271 29.4914 269.055 31.2866 271.263 31.2866C273.47 31.2866 275.254 29.4914 275.254 27.2837C275.254 25.0759 273.47 23.2919 271.263 23.2919Z" fill="#838383"/>
<defs>
<clipPath id="clip0_92_1009">
<rect width="22.4708" height="22.4708" fill="white" transform="translate(27.9432 16.7645)"/>
</clipPath>
</defs>
</svg>
