<svg width="311" height="56" viewBox="0 0 311 56" fill="none" xmlns="http://www.w3.org/2000/svg">
<path d="M0 28C0 12.536 12.536 0 28 0H283C298.464 0 311 12.536 311 28C311 43.464 298.464 56 283 56H28C12.536 56 0 43.464 0 28Z" fill="#2F302C"/>
<g clip-path="url(#clip0_92_1038)">
<path d="M49.9126 25.2556L42.8109 18.1529C41.932 17.2765 40.7414 16.7844 39.5002 16.7844C38.259 16.7844 37.0684 17.2765 36.1895 18.1529L29.0878 25.2556C28.826 25.5157 28.6185 25.8251 28.4772 26.166C28.3359 26.5069 28.2637 26.8724 28.2648 27.2414V36.4329C28.2648 37.1779 28.5607 37.8923 29.0875 38.4191C29.6142 38.9459 30.3287 39.2418 31.0736 39.2418H47.9268C48.6717 39.2418 49.3862 38.9459 49.9129 38.4191C50.4397 37.8923 50.7356 37.1779 50.7356 36.4329V27.2414C50.7367 26.8724 50.6645 26.5069 50.5232 26.166C50.3819 25.8251 50.1744 25.5157 49.9126 25.2556V25.2556ZM42.3091 37.3692H36.6913V33.6859C36.6913 32.9409 36.9873 32.2265 37.514 31.6997C38.0408 31.173 38.7552 30.877 39.5002 30.877C40.2452 30.877 40.9596 31.173 41.4864 31.6997C42.0131 32.2265 42.3091 32.9409 42.3091 33.6859V37.3692ZM48.8631 36.4329C48.8631 36.6813 48.7644 36.9194 48.5888 37.095C48.4132 37.2706 48.1751 37.3692 47.9268 37.3692H44.1816V33.6859C44.1816 32.4443 43.6884 31.2536 42.8105 30.3756C41.9325 29.4977 40.7418 29.0045 39.5002 29.0045C38.2586 29.0045 37.0679 29.4977 36.1899 30.3756C35.312 31.2536 34.8188 32.4443 34.8188 33.6859V37.3692H31.0736C30.8253 37.3692 30.5872 37.2706 30.4116 37.095C30.236 36.9194 30.1374 36.6813 30.1374 36.4329V27.2414C30.1382 26.9933 30.2368 26.7555 30.4117 26.5795L37.5134 19.4796C38.0412 18.9543 38.7555 18.6594 39.5002 18.6594C40.2449 18.6594 40.9592 18.9543 41.487 19.4796L48.5887 26.5823C48.7629 26.7576 48.8614 26.9943 48.8631 27.2414V36.4329Z" fill="#838383"/>
</g>
<path d="M163.368 28C163.368 28.2981 163.249 28.584 163.039 28.7948C162.828 29.0055 162.542 29.124 162.244 29.124C161.946 29.124 161.66 29.0055 161.449 28.7948C161.238 28.584 161.12 28.2981 161.12 28C161.12 27.7019 161.238 27.416 161.449 27.2052C161.66 26.9944 161.946 26.876 162.244 26.876C162.542 26.876 162.828 26.9944 163.039 27.2052C163.249 27.416 163.368 27.7019 163.368 28Z" fill="#838383"/>
<path fill-rule="evenodd" clip-rule="evenodd" d="M153.189 18.165H156.687C158.753 18.165 160.389 18.165 161.67 18.337C162.987 18.5146 164.054 18.8878 164.895 19.7285C165.934 20.7682 166.266 22.1597 166.386 23.966C167.034 24.2504 167.524 24.8539 167.577 25.6183C167.583 25.6868 167.583 25.7599 167.583 25.8273V30.1727C167.583 30.2401 167.583 30.3132 167.578 30.3806C167.524 31.1449 167.034 31.7497 166.386 32.0352C166.266 33.8403 165.934 35.2318 164.895 36.2715C164.054 37.1122 162.987 37.4854 161.67 37.663C160.388 37.835 158.753 37.835 156.687 37.835H153.189C151.123 37.835 149.487 37.835 148.206 37.663C146.889 37.4854 145.822 37.1122 144.98 36.2715C144.14 35.4296 143.767 34.3629 143.589 33.0456C143.417 31.7643 143.417 30.1289 143.417 28.063V27.9371C143.417 25.8712 143.417 24.2346 143.589 22.9544C143.767 21.6371 144.14 20.5704 144.98 19.7285C145.822 18.8878 146.889 18.5146 148.206 18.337C149.488 18.165 151.123 18.165 153.189 18.165ZM164.681 32.215H162.502C160.091 32.215 158.028 30.3851 158.028 28C158.028 25.6149 160.091 23.785 162.501 23.785H164.68C164.552 22.2777 164.263 21.4808 163.702 20.9211C163.226 20.4456 162.574 20.1601 161.444 20.0084C160.289 19.8533 158.766 19.851 156.623 19.851H153.251C151.107 19.851 149.585 19.8533 148.429 20.0084C147.299 20.1601 146.647 20.4456 146.172 20.9211C145.696 21.3965 145.412 22.0484 145.26 23.1781C145.105 24.3335 145.103 25.8554 145.103 27.9989C145.103 30.1423 145.105 31.6654 145.26 32.8208C145.412 33.9504 145.698 34.6024 146.173 35.0778C146.648 35.5533 147.3 35.8388 148.431 35.9905C149.587 36.1456 151.109 36.1479 153.252 36.1479H156.624C158.767 36.1479 160.29 36.1456 161.446 35.9905C162.576 35.8388 163.227 35.5533 163.703 35.0778C164.264 34.5181 164.553 33.7223 164.681 32.2139M147.913 23.504C147.913 23.2804 148.002 23.066 148.16 22.9079C148.318 22.7498 148.532 22.661 148.756 22.661H153.252C153.476 22.661 153.69 22.7498 153.848 22.9079C154.006 23.066 154.095 23.2804 154.095 23.504C154.095 23.7276 154.006 23.942 153.848 24.1001C153.69 24.2582 153.476 24.347 153.252 24.347H148.756C148.532 24.347 148.318 24.2582 148.16 24.1001C148.002 23.942 147.913 23.7276 147.913 23.504ZM165.531 25.471H162.502C160.902 25.471 159.714 26.6613 159.714 28C159.714 29.3387 160.902 30.529 162.501 30.529H165.556C165.788 30.5144 165.888 30.3582 165.896 30.2637V25.7363C165.888 25.6419 165.788 25.4856 165.556 25.4721L165.531 25.471Z" fill="#838383"/>
<path d="M275.613 12.6017H266.269C262.211 12.6017 259.791 15.0213 259.791 19.08V28.4239C259.791 31.5571 261.229 33.7091 263.76 34.5231C264.496 34.7795 265.344 34.9022 266.269 34.9022H275.613C276.539 34.9022 277.386 34.7795 278.122 34.5231C280.653 33.7091 282.091 31.5571 282.091 28.4239V19.08C282.091 15.0213 279.672 12.6017 275.613 12.6017ZM280.419 28.4239C280.419 30.8101 279.482 32.3153 277.598 32.9398C276.516 30.8101 273.952 29.2936 270.941 29.2936C267.931 29.2936 265.377 30.7989 264.285 32.9398H264.273C262.411 32.3376 261.464 30.8212 261.464 28.4351V19.08C261.464 15.9356 263.125 14.2742 266.269 14.2742H275.613C278.758 14.2742 280.419 15.9356 280.419 19.08V28.4239Z" fill="#A0E500"/>
<path d="M270.941 19.2919C268.733 19.2919 266.949 21.0759 266.949 23.2837C266.949 25.4914 268.733 27.2866 270.941 27.2866C273.149 27.2866 274.933 25.4914 274.933 23.2837C274.933 21.0759 273.149 19.2919 270.941 19.2919Z" fill="#A0E500"/>
<circle cx="271.5" cy="43" r="3" fill="#A0E500"/>
<defs>
<clipPath id="clip0_92_1038">
<rect width="22.4708" height="22.4708" fill="white" transform="translate(28.2645 16.7645)"/>
</clipPath>
</defs>
</svg>
