<svg width="47" height="45" viewBox="0 0 47 45" fill="none" xmlns="http://www.w3.org/2000/svg">
<path d="M40.704 33.856C40.704 36.6481 40.704 39.4402 40.704 42.2324C40.704 43.5932 40.013 44.2841 38.6381 44.2841C35.8671 44.2841 33.0891 44.2841 30.3181 44.2841C29.056 44.2841 28.3298 43.565 28.3298 42.3099C28.3298 38.5518 28.3298 34.8008 28.3298 31.0427C28.3298 30.7113 28.3227 30.3517 28.217 30.0486C28.0196 29.4774 27.5542 29.1954 26.9549 29.1954C24.6563 29.1884 22.3507 29.1743 20.0521 29.1954C19.1919 29.2025 18.6984 29.7736 18.6984 30.6972C18.6913 34.5188 18.6913 38.3403 18.6984 42.1689C18.6984 43.6002 18.0145 44.2841 16.5902 44.2841C13.8475 44.2841 11.1117 44.2841 8.36897 44.2841C7.02227 44.2841 6.31718 43.6002 6.31718 42.2676C6.31718 36.6199 6.31718 30.9652 6.33128 25.3175C6.33128 25.0918 6.4723 24.7887 6.64152 24.6406C11.838 20.1774 17.0415 15.7284 22.252 11.2864C23.0629 10.5954 23.9865 10.6095 24.8255 11.3287C28.1183 14.1419 31.404 16.9552 34.6967 19.7685C36.5581 21.362 38.4266 22.9554 40.295 24.5348C40.5912 24.7816 40.7181 25.0354 40.7181 25.4373C40.6969 28.2436 40.711 31.0498 40.711 33.863L40.704 33.856Z" fill="white"/>
<path d="M43.6089 23.731C42.7134 23.7169 42.0366 23.4279 41.4302 22.9131C35.9588 18.2314 30.4803 13.5497 25.0018 8.86794C23.8948 7.92313 23.1193 7.90903 22.0052 8.86794C16.5268 13.5497 11.0553 18.2314 5.57684 22.9131C4.30064 23.999 2.56616 24.0131 1.43098 22.9272C0.33811 21.8837 0.147723 20.114 1.08548 18.9576C1.51558 18.4288 2.07259 17.9917 2.6014 17.5404C9.06699 12.0126 15.5326 6.48477 21.9982 0.956936C23.1122 0.00507732 23.8878 0.00507732 24.9948 0.956936C31.6437 6.63989 38.2855 12.3158 44.9415 17.9917C45.6607 18.6051 46.3235 19.2256 46.4786 20.2338C46.7606 22.0812 45.3786 23.731 43.6089 23.731Z" fill="white"/>
</svg>
