<svg width="71" height="71" viewBox="0 0 71 71" fill="none" xmlns="http://www.w3.org/2000/svg">
<path d="M10.1166 56.9683C10.1166 57.5991 9.97187 58.1782 9.68232 58.7056C9.39277 59.2227 8.9481 59.6415 8.34831 59.9621C7.74852 60.2827 7.00395 60.443 6.11461 60.443H4.47036V64.3519H1.81785V53.4627H6.11461C6.98327 53.4627 7.7175 53.6126 8.31728 53.9125C8.91707 54.2124 9.36691 54.626 9.66681 55.1534C9.9667 55.6808 10.1166 56.2858 10.1166 56.9683ZM5.91296 58.3334C6.41968 58.3334 6.79713 58.2144 7.04532 57.9766C7.29351 57.7387 7.4176 57.4027 7.4176 56.9683C7.4176 56.534 7.29351 56.1979 7.04532 55.9601C6.79713 55.7222 6.41968 55.6033 5.91296 55.6033H4.47036V58.3334H5.91296ZM17.2524 57.139C17.5627 56.6633 17.9505 56.291 18.4158 56.0221C18.8812 55.7429 19.3982 55.6033 19.967 55.6033V58.4109H19.2379C18.5761 58.4109 18.0797 58.5557 17.7488 58.8452C17.4179 59.1245 17.2524 59.6208 17.2524 60.3344V64.3519H14.5999V55.6964H17.2524V57.139ZM28.2772 64.476C27.4292 64.476 26.664 64.2951 25.9814 63.9331C25.3093 63.5712 24.7767 63.0541 24.3837 62.3819C24.0011 61.7098 23.8098 60.9238 23.8098 60.0241C23.8098 59.1348 24.0063 58.354 24.3992 57.6819C24.7922 56.9993 25.3299 56.4771 26.0125 56.1152C26.695 55.7532 27.4602 55.5723 28.3082 55.5723C29.1562 55.5723 29.9214 55.7532 30.6039 56.1152C31.2865 56.4771 31.8242 56.9993 32.2172 57.6819C32.6101 58.354 32.8066 59.1348 32.8066 60.0241C32.8066 60.9135 32.605 61.6994 32.2017 62.3819C31.8087 63.0541 31.2658 63.5712 30.5729 63.9331C29.8904 64.2951 29.1252 64.476 28.2772 64.476ZM28.2772 62.1803C28.7839 62.1803 29.2131 61.9941 29.5647 61.6219C29.9266 61.2496 30.1076 60.717 30.1076 60.0241C30.1076 59.3313 29.9318 58.7987 29.5802 58.4264C29.2389 58.0541 28.8149 57.868 28.3082 57.868C27.7911 57.868 27.362 58.0541 27.0207 58.4264C26.6795 58.7884 26.5088 59.3209 26.5088 60.0241C26.5088 60.717 26.6743 61.2496 27.0052 61.6219C27.3465 61.9941 27.7705 62.1803 28.2772 62.1803ZM41.6595 57.899H40.2324V64.3519H37.5799V57.899H36.6182V55.6964H37.5799V55.4482C37.5799 54.383 37.8849 53.5764 38.4951 53.0283C39.1052 52.4699 39.9997 52.1907 41.1786 52.1907C41.3751 52.1907 41.5199 52.1959 41.6129 52.2062V54.4554C41.1062 54.4244 40.7495 54.4968 40.5426 54.6726C40.3358 54.8484 40.2324 55.1638 40.2324 55.6188V55.6964H41.6595V57.899ZM47.3422 54.7967C46.8769 54.7967 46.4943 54.6622 46.1944 54.3934C45.9048 54.1142 45.76 53.7729 45.76 53.3696C45.76 52.9559 45.9048 52.6147 46.1944 52.3458C46.4943 52.0666 46.8769 51.927 47.3422 51.927C47.7972 51.927 48.1695 52.0666 48.4591 52.3458C48.759 52.6147 48.9089 52.9559 48.9089 53.3696C48.9089 53.7729 48.759 54.1142 48.4591 54.3934C48.1695 54.6622 47.7972 54.7967 47.3422 54.7967ZM48.6607 55.6964V64.3519H46.0082V55.6964H48.6607ZM56.3379 52.8732V64.3519H53.6853V52.8732H56.3379ZM69.5216 59.8845C69.5216 60.1327 69.5061 60.3913 69.4751 60.6601H63.4721C63.5134 61.1979 63.6841 61.6115 63.9839 61.9011C64.2942 62.1803 64.6716 62.3199 65.1163 62.3199C65.7781 62.3199 66.2383 62.0407 66.4969 61.4823H69.32C69.1752 62.051 68.9115 62.5629 68.5289 63.0179C68.1566 63.4729 67.6861 63.8297 67.1173 64.0882C66.5486 64.3468 65.9126 64.476 65.2094 64.476C64.3614 64.476 63.6065 64.2951 62.9447 63.9331C62.2828 63.5712 61.7658 63.0541 61.3935 62.3819C61.0212 61.7098 60.8351 60.9238 60.8351 60.0241C60.8351 59.1245 61.016 58.3385 61.378 57.6664C61.7503 56.9942 62.2673 56.4771 62.9291 56.1152C63.591 55.7532 64.3511 55.5723 65.2094 55.5723C66.047 55.5723 66.7916 55.7481 67.4431 56.0997C68.0946 56.4513 68.6013 56.9528 68.9632 57.6043C69.3355 58.2558 69.5216 59.0159 69.5216 59.8845ZM66.8071 59.1865C66.8071 58.7315 66.652 58.3696 66.3417 58.1007C66.0315 57.8318 65.6437 57.6974 65.1784 57.6974C64.7337 57.6974 64.3562 57.8266 64.046 58.0852C63.7461 58.3437 63.56 58.7108 63.4876 59.1865H66.8071Z" fill="white"/>
<path d="M35.8944 39.8781C31.0505 39.8781 26.1995 39.8781 21.3556 39.8781C20.4743 39.8781 19.3814 38.75 19.4237 37.8827C19.8397 29.8801 25.4098 23.5907 33.2926 22.2229C42.1908 20.6788 50.9902 27.1373 52.1958 36.0918C52.2452 36.4514 52.2452 36.8251 52.3298 37.1776C52.5554 38.1507 52.2522 38.9121 51.4343 39.448C51.1382 39.6454 50.7645 39.8569 50.4331 39.8569C45.5892 39.8851 40.7383 39.8781 35.8944 39.8781ZM49.5659 37.1353C49.1428 30.7191 43.2625 24.324 35.1681 24.74C27.3417 25.1419 22.4414 31.7556 22.2652 37.1353H49.5659Z" fill="white"/>
<path d="M26.4463 10.0461C26.4674 4.79328 30.7332 0.576904 35.9861 0.612158C41.1895 0.647412 45.3707 4.91315 45.3495 10.1589C45.3354 15.3342 41.0626 19.5859 35.9014 19.5647C30.6415 19.5436 26.4181 15.299 26.4392 10.0461H26.4463ZM29.1538 10.1096C29.1609 13.8536 32.2209 16.8854 35.9578 16.8572C39.6383 16.829 42.649 13.8042 42.649 10.1307C42.649 6.34446 39.6102 3.29852 35.845 3.31967C32.1434 3.34082 29.1468 6.37972 29.1538 10.1166V10.1096Z" fill="white"/>
</svg>
