<svg width="69" height="70" viewBox="0 0 69 70" fill="none" xmlns="http://www.w3.org/2000/svg">
<path d="M33.9281 0.560954C42.0084 0.560954 50.0815 0.568005 58.1618 0.560954C60.7635 0.560954 62.78 2.18969 63.4922 4.28378C63.7107 4.9254 63.7812 5.58113 63.7812 6.25801C63.7812 7.85149 63.7812 9.44497 63.7812 11.0385C63.7812 18.6181 63.7812 26.1977 63.7883 33.7773C63.7883 35.0112 63.5345 36.1534 62.8153 37.1617C61.7224 38.6847 60.2347 39.5026 58.3592 39.5167C54.4742 39.5378 50.5962 39.5237 46.7113 39.5237C34.4358 39.5237 22.1603 39.5237 9.89194 39.5237C8.96828 39.5237 8.07988 39.3827 7.25494 38.9526C5.38647 37.9796 4.37115 36.4425 4.20193 34.3484C4.18783 34.151 4.18784 33.9536 4.18784 33.7491C4.18784 24.6324 4.18784 15.5157 4.18784 6.39902C4.18784 5.7574 4.23719 5.12283 4.41346 4.50236C5.06214 2.30251 7.00111 0.716074 9.28557 0.59621C10.6605 0.525702 12.0424 0.568006 13.4244 0.568006C15.4832 0.568006 17.5491 0.568006 19.6079 0.568006C24.3884 0.568006 29.1688 0.568006 33.9422 0.568006L33.9281 0.560954ZM6.32423 17.222C6.32423 17.4758 6.32423 17.7015 6.32423 17.92C6.32423 23.0107 6.32423 28.1014 6.32423 33.1921C6.32423 33.4741 6.31718 33.7632 6.32423 34.0452C6.40179 35.9842 7.8472 37.3662 9.78617 37.3591C10.4701 37.3591 11.154 37.3591 11.8309 37.3591C21.1873 37.3591 30.5437 37.3591 39.9002 37.3591C45.9286 37.3591 51.957 37.3591 57.9855 37.3591C58.3521 37.3591 58.7258 37.338 59.0854 37.2463C60.6295 36.8726 61.6096 35.5753 61.6096 33.9254C61.6096 28.5104 61.6096 23.0883 61.6096 17.6733C61.6096 17.5322 61.5955 17.3983 61.5884 17.2291H6.31718L6.32423 17.222ZM6.35243 9.19819C24.6281 9.19819 42.8615 9.19819 61.0949 9.19819C61.2359 9.19819 61.3769 9.18409 61.5179 9.17704C61.532 9.17704 61.5391 9.16294 61.5532 9.15589C61.5673 9.14884 61.5743 9.13474 61.5884 9.12768C61.5955 9.09243 61.6096 9.05013 61.6096 9.00782C61.6096 7.95725 61.6378 6.89963 61.6096 5.84906C61.5602 4.40364 60.4674 3.11335 59.0431 2.81721C58.6694 2.73966 58.2816 2.7326 57.9009 2.7326C44.6313 2.7326 31.3616 2.7326 18.092 2.7326C15.307 2.7326 12.5148 2.7326 9.72976 2.7326C8.71445 2.7326 7.87541 3.09219 7.19148 3.83253C6.62742 4.44595 6.35244 5.18628 6.33833 6.00418C6.31718 6.98424 6.32423 7.9643 6.32423 8.95141C6.32423 9.02192 6.34538 9.08538 6.35949 9.2123L6.35243 9.19819ZM6.35949 15.0292C6.59921 15.0292 6.79664 15.0292 6.99406 15.0292C15.4973 15.0292 24.0077 15.0292 32.5109 15.0292C40.0764 15.0292 47.642 15.0292 55.2145 15.0292C57.1887 15.0292 59.17 15.0292 61.1442 15.0292C61.2923 15.0292 61.4404 15.0081 61.5884 15.001V11.3698H6.36654V15.0292H6.35949Z" fill="white" fill-opacity="0.6"/>
<path d="M51.675 33.3825C50.977 33.3825 50.279 33.3543 49.588 33.3825C48.2977 33.4389 46.9016 32.4588 46.9016 30.7455C46.9016 29.5398 46.9016 28.327 46.9016 27.1213C46.9016 26.7688 46.8946 26.4092 46.9298 26.0567C47.0638 24.7875 48.0862 23.8286 49.3624 23.8075C50.9135 23.7863 52.4647 23.7793 54.0088 23.8075C55.3555 23.8286 56.4484 24.9074 56.4766 26.2611C56.5119 27.8123 56.5119 29.3635 56.4766 30.9076C56.4484 32.2825 55.3555 33.3472 53.9806 33.3754C53.2121 33.3895 52.4436 33.3754 51.675 33.3754V33.3825ZM51.675 31.5775C52.4012 31.5775 53.1275 31.5845 53.8537 31.5775C54.3473 31.5775 54.6152 31.3236 54.6787 30.8371C54.6928 30.7102 54.6928 30.5833 54.6928 30.4564C54.6928 29.5186 54.6928 28.5809 54.6928 27.6431C54.6928 27.2483 54.6998 26.8464 54.6787 26.4515C54.6505 25.8874 54.3684 25.6195 53.8185 25.6195C52.3942 25.6195 50.977 25.6195 49.5527 25.6195C48.9957 25.6195 48.7137 25.9016 48.7137 26.4656C48.7137 27.8899 48.7137 29.3071 48.7137 30.7314C48.7137 31.3095 48.9957 31.5845 49.588 31.5916C50.286 31.5916 50.984 31.5916 51.675 31.5916V31.5775Z" fill="white" fill-opacity="0.6"/>
<path d="M11.6546 28.8135V26.7406C11.9649 26.6489 28.217 26.6348 28.633 26.7265V28.8135H11.6546Z" fill="white" fill-opacity="0.6"/>
<path d="M11.6687 31.0204H22.4847V33.1075C22.1815 33.1991 12.1129 33.2132 11.6687 33.1216V31.0204Z" fill="white" fill-opacity="0.6"/>
<path d="M16.3483 53.0872L13.5097 63.9764H10.2987L8.5614 56.81L6.76203 63.9764H3.55109L0.789997 53.0872H3.62865L5.19534 61.0137L7.13431 53.0872H10.0505L11.9119 61.0137L13.4941 53.0872H16.3483ZM20.2535 59.6331C20.2535 58.7438 20.419 57.963 20.7499 57.2909C21.0911 56.6187 21.5513 56.1016 22.1304 55.7397C22.7095 55.3777 23.3559 55.1968 24.0694 55.1968C24.6795 55.1968 25.2121 55.3209 25.6671 55.5691C26.1325 55.8172 26.4892 56.143 26.7374 56.5463V55.3209H29.3899V63.9764H26.7374V62.751C26.4789 63.1543 26.117 63.4801 25.6516 63.7283C25.1966 63.9764 24.664 64.1005 24.0539 64.1005C23.3507 64.1005 22.7095 63.9196 22.1304 63.5576C21.5513 63.1853 21.0911 62.6631 20.7499 61.9909C20.419 61.3084 20.2535 60.5225 20.2535 59.6331ZM26.7374 59.6487C26.7374 58.9868 26.5513 58.4646 26.179 58.082C25.8171 57.6993 25.3724 57.508 24.845 57.508C24.3176 57.508 23.8678 57.6993 23.4955 58.082C23.1335 58.4542 22.9526 58.9713 22.9526 59.6331C22.9526 60.295 23.1335 60.8224 23.4955 61.2153C23.8678 61.598 24.3176 61.7893 24.845 61.7893C25.3724 61.7893 25.8171 61.598 26.179 61.2153C26.5513 60.8327 26.7374 60.3105 26.7374 59.6487ZM37.0638 52.4977V63.9764H34.4113V52.4977H37.0638ZM44.7409 52.4977V63.9764H42.0884V52.4977H44.7409ZM57.9247 59.509C57.9247 59.7572 57.9092 60.0158 57.8782 60.2846H51.8751C51.9165 60.8224 52.0871 61.236 52.387 61.5256C52.6972 61.8048 53.0747 61.9444 53.5194 61.9444C54.1812 61.9444 54.6414 61.6652 54.8999 61.1068H57.723C57.5783 61.6755 57.3146 62.1874 56.9319 62.6424C56.5597 63.0974 56.0891 63.4542 55.5204 63.7127C54.9516 63.9713 54.3156 64.1005 53.6124 64.1005C52.7645 64.1005 52.0095 63.9196 51.3477 63.5576C50.6859 63.1957 50.1688 62.6786 49.7965 62.0064C49.4243 61.3343 49.2381 60.5483 49.2381 59.6487C49.2381 58.749 49.4191 57.963 49.781 57.2909C50.1533 56.6187 50.6704 56.1016 51.3322 55.7397C51.994 55.3777 52.7541 55.1968 53.6124 55.1968C54.4501 55.1968 55.1946 55.3726 55.8461 55.7242C56.4976 56.0758 57.0043 56.5773 57.3663 57.2288C57.7386 57.8803 57.9247 58.6404 57.9247 59.509ZM55.2101 58.811C55.2101 58.356 55.055 57.9941 54.7448 57.7252C54.4346 57.4563 54.0468 57.3219 53.5814 57.3219C53.1367 57.3219 52.7593 57.4512 52.449 57.7097C52.1492 57.9682 51.963 58.3353 51.8906 58.811H55.2101ZM67.2505 61.7272V63.9764H65.901C64.9393 63.9764 64.1896 63.7438 63.6518 63.2784C63.1141 62.8027 62.8452 62.0323 62.8452 60.9672V57.5235H61.7904V55.3209H62.8452V53.2113H65.4977V55.3209H67.235V57.5235H65.4977V60.9982C65.4977 61.2567 65.5598 61.4429 65.6839 61.5566C65.808 61.6704 66.0148 61.7272 66.3043 61.7272H67.2505Z" fill="white" fill-opacity="0.6"/>
</svg>
