<svg width="47" height="45" viewBox="0 0 47 45" fill="none" xmlns="http://www.w3.org/2000/svg">
<path d="M40.704 34.2315C40.704 37.0236 40.704 39.8157 40.704 42.6078C40.704 43.9687 40.013 44.6596 38.6381 44.6596C35.8671 44.6596 33.0891 44.6596 30.3181 44.6596C29.056 44.6596 28.3298 43.9404 28.3298 42.6854C28.3298 38.9273 28.3298 35.1763 28.3298 31.4182C28.3298 31.0868 28.3227 30.7272 28.217 30.424C28.0196 29.8529 27.5542 29.5709 26.9549 29.5709C24.6563 29.5639 22.3507 29.5497 20.0521 29.5709C19.1919 29.578 18.6984 30.1491 18.6984 31.0727C18.6913 34.8943 18.6913 38.7158 18.6984 42.5444C18.6984 43.9757 18.0145 44.6596 16.5902 44.6596C13.8475 44.6596 11.1117 44.6596 8.36897 44.6596C7.02227 44.6596 6.31718 43.9757 6.31718 42.6431C6.31718 36.9954 6.31718 31.3407 6.33128 25.693C6.33128 25.4673 6.4723 25.1641 6.64152 25.0161C11.838 20.5529 17.0415 16.1039 22.252 11.6619C23.0629 10.9709 23.9865 10.985 24.8256 11.7042C28.1183 14.5174 31.404 17.3307 34.6967 20.144C36.5581 21.7375 38.4266 23.3309 40.295 24.9103C40.5912 25.1571 40.7181 25.4109 40.7181 25.8128C40.6969 28.619 40.711 31.4253 40.711 34.2385L40.704 34.2315Z" fill="white" fill-opacity="0.6"/>
<path d="M43.6089 24.1065C42.7134 24.0924 42.0366 23.8033 41.4302 23.2886C35.9588 18.6069 30.4803 13.9252 25.0018 9.24343C23.8948 8.29862 23.1193 8.28452 22.0052 9.24343C16.5268 13.9252 11.0553 18.6069 5.57684 23.2886C4.30064 24.3745 2.56616 24.3886 1.43098 23.3027C0.33811 22.2592 0.147723 20.4895 1.08548 19.3331C1.51558 18.8043 2.07259 18.3672 2.6014 17.9159C9.06699 12.3881 15.5326 6.86026 21.9982 1.33242C23.1122 0.380566 23.8878 0.380566 24.9948 1.33242C31.6437 7.01537 38.2855 12.6913 44.9415 18.3672C45.6607 18.9806 46.3235 19.6011 46.4786 20.6093C46.7606 22.4566 45.3786 24.1065 43.6089 24.1065Z" fill="white" fill-opacity="0.6"/>
</svg>
