<svg width="490" height="353" viewBox="0 0 490 353" fill="none" xmlns="http://www.w3.org/2000/svg">
<path d="M490 64.2374V70.2864C489.667 70.9151 489.159 71.512 489.037 72.1777C488.55 74.8826 488.175 77.6033 487.783 80.3188C487.111 85.0259 486.508 89.7383 485.778 94.4349C485.048 99.1315 484.159 103.807 483.392 108.504C481.968 117.263 480.598 126.027 479.175 134.786C477.646 144.18 476.069 153.562 474.54 162.95C473.159 171.434 471.841 179.929 470.445 188.414C469.286 195.456 468.011 202.477 466.868 209.519C465.111 220.355 463.45 231.206 461.693 242.047C459.926 252.972 458.08 263.881 456.286 274.801C454.937 283.016 453.619 291.231 452.275 299.446C450.873 308.021 449.45 316.595 448.037 325.169C447.265 329.866 446.646 334.589 445.709 339.248C444.424 345.636 440.63 349.867 434.228 351.616C433.81 351.732 433.408 351.906 432.911 352.081C433.244 352.461 433.482 352.725 433.715 352.989H15.9998C16.0897 352.741 16.185 352.493 16.3172 352.134C14.9786 351.711 13.6665 351.352 12.4019 350.892C4.03695 347.839 -1.32808 337.748 0.290954 328.772C1.39147 322.655 2.71421 316.569 4.02107 310.488C8.42843 289.921 12.8781 269.36 17.3066 248.793C20.968 231.803 24.6293 214.818 28.2854 197.828C32.698 177.357 37.1054 156.88 41.518 136.408C45.9465 115.847 50.3698 95.2802 54.8142 74.7188C59.0046 55.3197 63.2003 35.9206 67.4119 16.5267C68.0892 13.3992 68.7717 10.2717 69.6182 7.18641C70.5336 3.85813 72.7875 1.89286 76.2795 1.51249C78.2848 1.29588 80.2954 1.03173 82.3059 1.02645C134.813 1.00004 187.321 1.00532 239.828 1.00532C240.839 1.00532 241.86 0.941924 242.86 1.03702C247.389 1.45437 251.421 2.89663 254.5 6.48378C257.997 10.557 258.473 15.2165 257.352 20.1826C255.357 29.0157 253.278 37.8277 251.246 46.6556C250.965 47.8812 250.743 49.1227 250.431 50.6601C251.421 50.7816 252.198 50.9401 252.976 50.9559C256.008 51.0035 259.045 51.0246 262.082 51.0246C332.335 51.0141 402.594 51.0035 472.847 50.9929C473.767 50.9929 474.688 50.9824 475.603 51.0458C481.529 51.4631 486.873 55.6155 488.757 61.1996C489.106 62.2298 489.577 63.2178 489.989 64.2268L490 64.2374ZM373.864 72.1988C372.001 72.0826 370.562 71.9135 369.123 71.9135C343.372 71.8871 317.626 71.8818 291.875 71.8713C291.05 71.8713 290.219 71.903 289.394 71.9347C288.357 71.9769 287.658 72.4947 287.362 73.4879C286.997 74.7135 286.632 75.9445 286.335 77.1913C283.568 88.8508 280.812 100.51 278.066 112.175C274.648 126.688 271.256 141.21 267.844 155.723C263.442 174.419 259.034 193.121 254.627 211.818C251.685 224.28 248.743 236.743 245.796 249.205C241.77 266.206 237.738 283.207 233.701 300.202C231.421 309.812 229.13 319.421 226.871 329.036C226.669 329.882 226.701 330.785 226.595 331.931C228.167 332.016 229.421 332.143 230.68 332.143C277.029 332.153 323.372 332.159 369.721 332.143C386.731 332.132 403.747 332.064 420.757 331.979C422.286 331.974 423.821 331.673 425.498 331.493C426.577 327.024 427.181 322.702 427.842 318.386C428.509 314.049 429.265 309.722 429.995 305.39C430.715 301.116 431.752 296.884 432.053 292.193C429.815 292.124 427.911 292.019 426.001 292.019C402.551 292.04 379.102 292.092 355.652 292.114C334.044 292.135 312.43 292.114 290.822 292.14C287.055 292.14 283.288 292.309 279.515 292.351C278.743 292.362 277.965 292.182 276.854 292.045C284.812 258.672 292.33 225.548 300.304 192.545C302.806 192.366 304.986 192.234 307.277 193.306C307.404 194.109 307.7 195.007 307.637 195.873C307.531 197.326 307.277 198.779 306.933 200.2C305.272 207.137 303.547 214.063 301.875 220.999C297.155 240.562 292.447 260.125 287.753 279.693C287.547 280.549 287.505 281.437 287.346 282.583C288.669 282.763 289.727 283.032 290.785 283.037C300.166 283.069 309.547 283.069 318.922 283.027C320.462 283.022 322.007 282.731 323.663 282.562C323.996 281.495 324.335 280.56 324.578 279.598C326.018 273.924 327.494 268.256 328.843 262.561C333.615 242.448 338.361 222.336 343.07 202.208C344.049 198.013 344.869 193.781 344.351 189.428C343.875 185.466 342.039 182.27 338.568 180.246C336.933 179.29 335.028 178.799 333.24 178.096C332.51 177.811 331.785 177.531 331.002 177.225C331.155 176.342 331.256 175.745 331.351 175.191C332.689 174.668 333.88 174.203 335.07 173.732C340.774 171.487 345.478 167.969 348.954 162.881C352.562 157.598 355.038 151.829 356.509 145.622C359.652 132.361 362.774 119.096 365.933 105.841C368.345 95.6975 370.805 85.5648 373.234 75.4267C373.44 74.555 373.573 73.6675 373.853 72.2041L373.864 72.1988ZM235.659 21.9788C233.331 21.9101 231.431 21.7991 229.537 21.7991C212.707 21.8097 195.881 21.852 179.051 21.8573C151.374 21.8678 123.692 21.8625 96.0148 21.8678C91.8244 21.8678 91.6074 21.9999 90.6445 26.0889C88.0202 37.2149 85.4329 48.3567 82.8615 59.4932C82.7292 60.0691 82.8456 60.703 82.8456 61.337C85.4223 62.1823 87.9196 61.9393 90.3746 61.934C106.374 61.897 122.374 61.8072 138.374 61.7438C152.718 61.691 167.062 61.6487 181.405 61.617C181.919 61.617 182.437 61.8283 183.077 61.9657C183.014 62.7 183.035 63.3393 182.897 63.9415C181.532 70.0064 180.151 76.0713 178.749 82.1308C175.062 98.0802 171.358 114.03 167.66 129.979C164.723 142.632 161.776 155.279 158.834 167.932C155.914 180.495 152.988 193.058 150.067 205.621C146.998 218.807 143.829 231.972 140.903 245.19C139.517 251.445 138.58 257.801 139.03 264.262C139.215 266.93 139.744 269.508 140.813 271.975C143.49 278.161 148.459 281.659 154.665 283.645C160.035 285.362 165.58 286.202 171.194 286.387C177.712 286.603 184.225 286.683 190.755 286.033C196.458 285.468 202.008 284.459 207.416 282.594C217.183 279.228 224.421 273.031 228.908 263.681C231.336 258.62 233.209 253.368 234.511 247.937C238.685 230.503 242.738 213.038 246.844 195.588C252.003 173.69 257.167 151.792 262.336 129.894C266.119 113.871 269.923 97.8583 273.706 81.835C274.436 78.7497 275.113 75.6539 275.828 72.5105C275.357 72.2569 275.05 71.9505 274.743 71.9505C261.055 71.9241 247.368 71.9294 233.442 71.9294C233.024 73.0124 232.516 73.9739 232.273 74.9988C228.68 90.124 225.109 105.26 221.553 120.396C217.728 136.688 213.939 152.992 210.098 169.284C205.336 189.492 200.537 209.689 195.749 229.885C194.146 236.648 192.532 243.41 190.881 250.167C190.564 251.461 190.051 252.708 189.649 253.918C187.934 253.918 186.553 254.05 185.204 253.886C183.099 253.638 182.522 252.74 182.882 250.711C182.929 250.441 183.03 250.183 183.088 249.913C187.501 230.662 191.892 211.4 196.321 192.154C199.479 178.429 202.686 164.714 205.871 151C210.786 129.799 215.691 108.599 220.622 87.4033C225.389 66.9158 230.193 46.4337 234.966 25.9516C235.23 24.8157 235.378 23.6535 235.675 21.9735L235.659 21.9788ZM79.433 256.089C79.6023 254.832 79.6446 253.838 79.8721 252.887C83.4805 237.577 87.1313 222.278 90.7238 206.968C91.364 204.236 92.3164 201.537 92.2635 198.7C91.0307 197.517 89.5651 197.839 88.2477 197.833C76.8457 197.791 65.4437 197.802 54.0417 197.812C53.3168 197.812 52.5973 197.923 51.6502 198.003C51.3433 198.848 50.9624 199.667 50.756 200.528C47.4968 213.952 44.2111 227.371 41.0418 240.811C39.6344 246.77 38.1159 252.74 37.2535 258.789C35.7879 269.038 39.9889 277.876 49.9835 282.224C56.2374 284.945 62.8035 286.091 69.5283 286.392C75.306 286.651 81.089 286.699 86.872 285.996C94.9725 285.008 102.74 282.995 110.009 279.281C114.84 276.814 118.771 273.306 121.845 268.816C125.21 263.897 127.221 258.429 128.575 252.692C130.549 244.324 132.491 235.95 134.438 227.577C137.215 215.642 140.062 203.719 142.718 191.758C143.448 188.472 143.871 185.065 143.945 181.699C144.067 176.295 141.406 172.829 136.163 171.461C133.078 170.658 129.866 170.093 126.692 169.945C121.004 169.68 115.295 169.85 109.591 169.76C107.671 169.728 105.745 169.517 103.835 169.253C103.073 169.147 102.364 168.698 101.517 168.36C101.634 167.145 101.628 166.141 101.84 165.179C103.385 158.216 104.967 151.264 106.549 144.312C108.946 133.788 111.332 123.269 113.776 112.756C113.978 111.9 114.433 111.023 114.999 110.347C115.946 109.211 118.03 108.741 119.009 109.296C120.507 110.147 120.046 111.478 119.755 112.714C118.745 116.988 117.724 121.257 116.66 125.515C113.676 137.491 110.66 149.462 107.676 161.439C107.459 162.305 107.369 163.209 107.253 163.938C108.052 165.174 109.147 164.968 110.12 164.979C112.417 165.005 114.718 164.931 117.015 164.926C126.12 164.91 135.221 164.926 144.326 164.889C145.67 164.884 147.104 165.163 148.464 164.154C148.617 163.674 148.855 163.087 149.004 162.474C151.459 152.247 153.871 142.008 156.347 131.791C160.998 112.593 165.691 93.4047 170.337 74.2064C170.538 73.3769 170.501 72.4841 170.596 71.3536C167.887 71.2902 165.517 71.1845 163.146 71.1845C139.332 71.1686 115.512 71.1686 91.6974 71.1739C88.7556 71.1739 85.8138 71.2162 82.8721 71.2849C82.1631 71.3007 81.4594 71.4803 80.7398 71.5807C80.47 72.4101 80.2001 73.0917 80.0255 73.7943C78.3377 80.8207 76.6446 87.8418 74.9886 94.8734C72.3219 106.179 69.6817 117.495 67.0151 128.801C63.8247 142.33 60.5654 155.85 57.4596 169.4C56.8089 172.237 56.3962 175.185 56.3538 178.091C56.2639 184.135 59.5178 188.583 65.1844 190.712C65.867 190.971 66.5707 191.235 67.2849 191.341C70.0045 191.732 72.7293 192.281 75.4647 192.366C80.7927 192.529 86.1313 192.408 91.4646 192.424C92.655 192.424 93.8667 192.413 95.036 192.609C97.946 193.095 98.5333 193.945 98.237 196.93C98.1735 197.564 98.073 198.203 97.9248 198.821C97.11 202.292 96.237 205.753 95.4487 209.229C92.3058 223.049 89.1948 236.88 86.0519 250.7C85.1578 254.636 84.089 255.524 79.4435 256.073L79.433 256.089ZM431.456 282.615C431.704 281.875 431.953 281.379 432.038 280.85C432.678 276.878 433.244 272.889 433.911 268.921C436.392 254.124 438.921 239.337 441.397 224.539C443.344 212.901 445.223 201.246 447.164 189.608C449.106 177.969 451.09 166.336 453.053 154.698C454.498 146.129 455.947 137.56 457.371 128.986C458.72 120.866 460.021 112.735 461.381 104.615C462.757 96.4055 464.222 88.2116 465.54 79.9912C465.926 77.5875 466.699 75.189 466.244 72.3573C465.095 72.2094 463.953 71.9505 462.815 71.9347C457.392 71.866 451.963 71.8554 446.54 71.8502C430.815 71.8343 415.091 71.8237 399.366 71.8396C398.017 71.8396 396.583 71.5385 395.25 72.632C395.001 73.3558 394.689 74.2116 394.419 75.0781C390.387 87.9104 386.34 100.732 382.345 113.575C376.805 131.395 371.319 149.235 365.806 167.065C360.668 183.675 355.541 200.28 350.388 216.884C347.896 224.925 345.34 232.944 342.843 240.98C338.88 253.733 334.938 266.496 331.007 279.26C330.7 280.259 330.547 281.305 330.272 282.578C331.6 282.763 332.568 283.016 333.541 283.016C346.599 283.053 359.657 283.069 372.716 283.037C374.245 283.037 375.779 282.72 377.477 282.53C381.742 268.636 384.901 254.641 388.609 240.784C390.461 240.224 392.117 240.076 393.895 241.159C392.292 248.059 390.609 254.89 389.133 261.763C387.662 268.604 385.879 275.382 384.467 282.557C385.864 282.757 386.922 283.043 387.98 283.043C401.038 283.069 414.096 283.064 427.154 283.027C428.599 283.027 430.043 282.757 431.466 282.62L431.456 282.615ZM101.56 302.796C101.39 303.118 101.195 303.34 101.147 303.594C99.8137 310.689 98.4751 317.784 97.1947 324.889C97.0571 325.645 97.2582 326.464 97.3164 327.504C99.9301 327.51 102.353 328.339 104.449 326.749C104.777 324.599 104.835 322.628 105.427 320.827C106.041 318.946 105.263 316.827 106.634 314.746C107.285 315.359 107.877 315.75 108.247 316.289C109.496 318.101 110.623 319.992 111.872 321.799C113.39 324.002 114.993 324.456 117.279 323.072C118.581 322.285 119.644 321.086 120.739 319.997C122.036 318.703 123.221 317.298 124.512 316.003C124.898 315.612 125.501 315.433 126.491 314.889C125.766 319.332 125.131 323.252 124.475 327.288C126.692 327.885 128.792 327.652 130.861 327.525C131.771 327.473 132.115 326.622 132.274 325.735C133.348 319.802 134.485 313.88 135.538 307.947C135.834 306.283 135.935 304.581 136.152 302.643C134.464 302.59 133.104 302.616 131.755 302.495C129.951 302.331 128.591 302.933 127.395 304.307C125.411 306.578 123.321 308.76 121.231 310.942C119.665 312.58 118.03 314.154 116.586 315.596C116.067 315.565 115.798 315.623 115.718 315.528C112.459 311.576 110.591 306.737 107.501 302.532C105.856 302.532 104.21 302.516 102.565 302.542C102.221 302.548 101.877 302.711 101.565 302.791L101.56 302.796ZM61.5548 310.947C61.5972 310.218 61.6395 309.595 61.6712 308.972C61.9093 304.333 59.1686 303.097 55.7771 302.537C55.2427 302.447 54.6766 302.516 54.1264 302.516C49.1687 302.516 44.2058 302.59 39.2482 302.495C33.3594 302.384 31.2007 305.464 30.4229 309.621C29.7721 313.119 29.1848 316.632 28.5446 320.135C27.7404 324.509 29.7933 327.399 34.2906 327.536C40.4387 327.726 46.5973 327.679 52.7454 327.531C56.3168 327.446 58.4649 325.55 59.4014 322.042C59.9676 319.929 60.3379 317.757 60.7612 315.607C60.8776 315.026 60.867 314.418 60.9093 313.832C60.4596 313.674 60.2109 313.51 59.957 313.51C55.92 313.504 51.8777 313.489 47.8407 313.541C46.5762 313.557 45.5709 314.181 44.8989 315.322C44.7984 316.484 44.5339 317.699 45.6502 318.391C47.9412 318.809 50.3751 317.419 52.2375 319.48C51.8142 321.403 50.7931 322.301 48.9306 322.274C45.6238 322.227 42.317 322.258 39.0154 322.206C38.4016 322.195 37.7932 321.936 37.2641 321.809C36.6292 320.795 36.4175 319.934 36.6609 318.83C37.19 316.426 37.481 313.969 37.9519 311.55C38.1212 310.683 38.5233 309.864 38.8567 308.914C43.5497 307.973 48.0682 308.327 52.5232 309.009C53.0682 309.769 53.5338 310.424 54.0523 311.148C56.5337 311.095 58.9887 311.47 61.5548 310.937V310.947ZM217.596 310.858C218.527 305.189 216.315 302.526 210.913 302.521C205.675 302.511 200.432 302.511 195.194 302.521C190.628 302.532 188.141 304.08 187.093 308.385C186.035 312.717 185.554 317.187 184.85 321.603C184.765 322.137 184.876 322.702 184.871 323.252C184.85 324.81 185.654 325.914 186.987 326.511C188.141 327.024 189.416 327.531 190.649 327.552C196.712 327.652 202.786 327.695 208.85 327.552C212.41 327.473 214.617 325.529 215.601 322.121C215.855 321.244 216.066 320.341 216.162 319.437C216.357 317.567 217.278 315.75 216.648 313.594C215.749 313.541 214.855 313.452 213.961 313.452C211.204 313.457 208.447 313.499 205.691 313.526C205.141 313.531 204.585 313.489 204.035 313.541C201.733 313.779 200.971 314.757 201.368 317.012C201.458 317.525 201.723 318.011 202.003 318.756C203.209 318.65 204.368 318.518 205.527 318.449C206.738 318.375 207.961 318.365 208.495 319.828C207.982 321.587 206.738 322.29 204.982 322.285C202.59 322.274 200.204 322.29 197.813 322.258C196.453 322.242 195.098 322.147 193.448 322.079C193.31 320.948 193.003 319.981 193.109 319.062C193.4 316.521 193.807 313.99 194.284 311.476C194.659 309.479 195.606 308.575 197.68 308.501C201.522 308.364 205.384 308.184 209.098 309.167C209.627 309.901 210.098 310.546 210.564 311.185C212.95 311.169 215.225 311.465 217.606 310.863L217.596 310.858ZM152.956 302.901C151.49 310.974 150.02 319.11 148.522 327.362C151.014 327.906 153.263 327.568 155.739 327.467C156.014 326.686 156.379 325.951 156.522 325.175C156.972 322.75 157.215 320.283 157.776 317.884C158.199 316.072 158.168 314.086 159.538 312.157C160.464 313.113 161.3 313.901 162.056 314.767C165.316 318.486 168.517 322.258 171.818 325.941C172.453 326.648 173.39 327.383 174.279 327.515C175.961 327.763 177.707 327.589 179.511 327.589C181.061 319.157 182.554 311.032 184.088 302.69H176.506C176.019 305.194 175.702 307.64 175.035 309.991C174.358 312.39 174.924 315.11 173.22 317.387C172.781 317.181 172.379 317.113 172.167 316.875C169.125 313.452 166.04 310.06 163.104 306.541C159.533 302.268 159.337 302.114 153.75 302.643C153.66 302.653 153.575 302.695 152.961 302.896L152.956 302.901ZM94.163 327.488C91.2371 319.015 88.4117 310.826 85.544 302.516C83.417 302.516 81.3959 302.627 79.3906 302.484C77.4806 302.347 76.2372 303.176 75.269 304.661C74.3166 306.119 73.4013 307.598 72.396 309.014C68.5283 314.466 64.6236 319.886 60.7665 325.344C60.3432 325.946 60.1633 326.717 59.7718 327.647C62.3062 327.647 64.4172 327.758 66.5125 327.594C67.322 327.531 68.1632 326.95 68.8458 326.416C69.4013 325.983 69.65 325.153 70.2002 324.71C70.8775 324.16 71.7135 323.495 72.5124 323.452C75.433 323.299 78.3695 323.326 81.2954 323.415C82.4382 323.452 83.5652 323.838 84.5229 324.028C85.0731 325.359 85.4805 326.358 85.9461 327.483H94.1682L94.163 327.488ZM144.226 327.478C144.951 323.569 145.617 319.981 146.279 316.394C146.956 312.712 147.66 309.03 148.284 305.337C148.427 304.492 148.305 303.599 148.305 302.674H141.311C139.914 305.089 136.252 324.715 136.67 327.478H144.226Z" fill="black"/>
<path d="M373.864 72.1988C373.583 73.6622 373.451 74.5497 373.245 75.4214C370.816 85.5595 368.361 95.6922 365.943 105.836C362.784 119.091 359.663 132.356 356.52 145.616C355.049 151.824 352.573 157.593 348.964 162.876C345.488 167.963 340.79 171.482 335.081 173.727C333.891 174.197 332.7 174.662 331.361 175.185C331.266 175.74 331.166 176.337 331.012 177.219C331.795 177.526 332.525 177.806 333.25 178.091C335.033 178.794 336.943 179.285 338.578 180.241C342.049 182.265 343.885 185.461 344.361 189.423C344.88 193.776 344.065 198.013 343.081 202.202C338.372 222.325 333.626 242.443 328.854 262.555C327.504 268.25 326.028 273.914 324.589 279.593C324.346 280.554 324.007 281.49 323.674 282.557C322.012 282.726 320.473 283.011 318.933 283.022C309.552 283.069 300.171 283.064 290.796 283.032C289.738 283.032 288.679 282.763 287.357 282.578C287.51 281.437 287.558 280.544 287.764 279.688C292.462 260.12 297.166 240.557 301.886 220.994C303.558 214.058 305.282 207.137 306.944 200.195C307.282 198.774 307.536 197.321 307.647 195.868C307.711 195.002 307.409 194.104 307.288 193.301C304.997 192.228 302.817 192.36 300.314 192.54C292.341 225.543 284.828 258.667 276.865 292.04C277.976 292.172 278.748 292.351 279.526 292.346C283.293 292.298 287.06 292.135 290.833 292.135C312.441 292.108 334.055 292.129 355.663 292.108C379.112 292.087 402.562 292.04 426.011 292.013C427.916 292.013 429.826 292.119 432.064 292.188C431.762 296.874 430.725 301.105 430.006 305.384C429.276 309.716 428.524 314.043 427.852 318.381C427.186 322.692 426.588 327.018 425.509 331.488C423.831 331.667 422.302 331.963 420.768 331.974C403.757 332.058 386.742 332.132 369.731 332.137C323.383 332.159 277.039 332.148 230.691 332.137C229.431 332.137 228.177 332.011 226.606 331.926C226.706 330.78 226.68 329.882 226.881 329.031C229.14 319.416 231.431 309.806 233.712 300.197C237.743 283.196 241.78 266.201 245.807 249.2C248.759 236.737 251.701 224.275 254.637 211.812C259.045 193.116 263.457 174.419 267.854 155.717C271.267 141.205 274.664 126.682 278.076 112.17C280.822 100.505 283.579 88.8455 286.346 77.1859C286.642 75.9392 287.007 74.7135 287.373 73.4826C287.669 72.4894 288.367 71.9716 289.404 71.9294C290.23 71.8977 291.06 71.866 291.886 71.866C317.637 71.8712 343.382 71.8818 369.133 71.9082C370.573 71.9082 372.012 72.0773 373.874 72.1935L373.864 72.1988ZM307.981 161.788C308.303 161.946 308.536 162.152 308.785 162.173C314.843 162.633 315.531 161.872 316.743 156.758C320.25 141.998 323.711 127.221 327.15 112.439C327.832 109.507 328.393 106.538 328.917 103.569C329.049 102.83 328.822 102.032 328.764 101.329C326.309 100.695 324.176 100.352 321.705 100.938C317.134 120.675 312.557 140.434 307.997 160.192C307.88 160.699 307.981 161.254 307.981 161.788Z" fill="white"/>
<path d="M235.659 21.9788C235.363 23.6535 235.214 24.8157 234.95 25.9569C230.177 46.4443 225.373 66.9211 220.606 87.4085C215.675 108.604 210.77 129.81 205.855 151.005C202.675 164.725 199.463 178.434 196.305 192.16C191.876 211.411 187.479 230.667 183.072 249.918C183.009 250.188 182.913 250.447 182.866 250.716C182.506 252.745 183.088 253.643 185.189 253.891C186.538 254.05 187.924 253.923 189.633 253.923C190.035 252.713 190.548 251.466 190.866 250.172C192.516 243.42 194.13 236.658 195.733 229.891C200.522 209.694 205.321 189.492 210.082 169.29C213.924 152.997 217.712 136.694 221.537 120.401C225.093 105.265 228.659 90.1293 232.257 75.0041C232.5 73.9792 233.008 73.0177 233.426 71.9347C247.352 71.9347 261.04 71.9347 274.727 71.9558C275.034 71.9558 275.341 72.2675 275.812 72.5158C275.098 75.6592 274.42 78.755 273.69 81.8403C269.907 97.8636 266.103 113.876 262.32 129.9C257.151 151.798 251.987 173.69 246.828 195.594C242.717 213.043 238.664 230.509 234.495 247.943C233.193 253.374 231.32 258.63 228.892 263.686C224.4 273.037 217.167 279.234 207.4 282.599C201.993 284.464 196.442 285.473 190.739 286.038C184.21 286.683 177.697 286.604 171.178 286.392C165.564 286.207 160.014 285.373 154.649 283.65C148.443 281.664 143.475 278.167 140.797 271.98C139.729 269.513 139.2 266.935 139.014 264.267C138.565 257.806 139.506 251.451 140.887 245.195C143.813 231.977 146.983 218.812 150.051 205.626C152.977 193.063 155.898 180.5 158.818 167.937C161.76 155.284 164.707 142.637 167.644 129.984C171.347 114.035 175.046 98.0855 178.734 82.1361C180.136 76.0765 181.517 70.0117 182.882 63.9468C183.019 63.3446 182.998 62.7053 183.062 61.971C182.421 61.8336 181.908 61.617 181.39 61.6223C167.046 61.6487 152.702 61.691 138.358 61.7491C122.358 61.8125 106.359 61.9023 90.3588 61.9393C87.9038 61.9446 85.4065 62.1876 82.8298 61.3423C82.8298 60.7083 82.7134 60.0744 82.8457 59.4985C85.4171 48.3567 88.0043 37.2202 90.6287 26.0942C91.5916 22.0052 91.8085 21.8731 95.999 21.8731C123.676 21.8678 151.358 21.8731 179.035 21.8626C195.866 21.852 212.691 21.815 229.521 21.8044C231.421 21.8044 233.32 21.9101 235.643 21.9841L235.659 21.9788Z" fill="white"/>
<path d="M79.4329 256.089C84.0836 255.539 85.1471 254.657 86.0413 250.716C89.1841 236.896 92.2952 223.065 95.438 209.245C96.2264 205.768 97.0994 202.308 97.9142 198.837C98.0623 198.214 98.1629 197.58 98.2263 196.946C98.5279 193.956 97.9406 193.11 95.0253 192.624C93.856 192.429 92.6444 192.445 91.4539 192.439C86.1207 192.418 80.7821 192.54 75.4541 192.381C72.7187 192.297 69.9991 191.747 67.2743 191.356C66.56 191.251 65.8563 190.987 65.1738 190.728C59.5072 188.599 56.2533 184.15 56.3432 178.107C56.3855 175.201 56.7982 172.253 57.449 169.416C60.5601 155.865 63.814 142.351 67.0045 128.816C69.6711 117.511 72.3113 106.195 74.9779 94.8892C76.6393 87.8575 78.3271 80.8311 80.0149 73.81C80.1842 73.1074 80.4593 72.4259 80.7292 71.5965C81.4488 71.4908 82.1524 71.3165 82.8614 71.3006C85.8032 71.2372 88.745 71.1897 91.6867 71.1897C115.501 71.1844 139.321 71.1844 163.136 71.2003C165.506 71.2003 167.876 71.3059 170.585 71.3693C170.49 72.4999 170.527 73.3874 170.326 74.2221C165.675 93.4205 160.988 112.608 156.337 131.807C153.861 142.029 151.443 152.262 148.993 162.49C148.845 163.098 148.612 163.689 148.453 164.17C147.094 165.179 145.665 164.899 144.316 164.905C135.21 164.942 126.11 164.931 117.004 164.942C114.708 164.942 112.406 165.021 110.11 164.994C109.136 164.984 108.041 165.19 107.242 163.954C107.364 163.225 107.454 162.326 107.665 161.455C110.649 149.478 113.665 137.507 116.649 125.53C117.713 121.272 118.734 117.004 119.745 112.73C120.036 111.494 120.496 110.162 118.999 109.312C118.025 108.757 115.94 109.227 114.988 110.363C114.422 111.039 113.962 111.911 113.766 112.772C111.321 123.285 108.93 133.804 106.538 144.327C104.956 151.28 103.374 158.232 101.829 165.195C101.618 166.157 101.623 167.166 101.507 168.375C102.348 168.714 103.062 169.163 103.824 169.268C105.729 169.527 107.655 169.744 109.581 169.775C115.279 169.865 120.988 169.696 126.681 169.96C129.861 170.108 133.067 170.674 136.152 171.477C141.395 172.845 144.051 176.311 143.935 181.715C143.861 185.08 143.438 188.488 142.707 191.774C140.051 203.734 137.205 215.658 134.427 227.592C132.48 235.966 130.538 244.34 128.565 252.708C127.21 258.445 125.205 263.908 121.835 268.831C118.761 273.327 114.824 276.83 109.999 279.297C102.729 283.011 94.9618 285.024 86.8614 286.012C81.0784 286.714 75.2954 286.672 69.5177 286.408C62.7929 286.107 56.2321 284.96 49.9729 282.24C39.9783 277.892 35.7773 269.048 37.2429 258.804C38.1106 252.755 39.6238 246.786 41.0312 240.826C44.2058 227.381 47.4862 213.962 50.7454 200.544C50.9517 199.682 51.3327 198.869 51.6396 198.018C52.5866 197.939 53.3062 197.828 54.0311 197.828C65.4331 197.818 76.835 197.802 88.237 197.849C89.5545 197.849 91.0201 197.527 92.2529 198.716C92.3058 201.553 91.3534 204.252 90.7132 206.984C87.1206 222.299 83.4699 237.593 79.8615 252.903C79.6392 253.854 79.5916 254.847 79.4223 256.105L79.4329 256.089Z" fill="white"/>
<path d="M431.461 282.615C430.038 282.758 428.593 283.022 427.149 283.022C414.091 283.059 401.033 283.064 387.975 283.038C386.916 283.038 385.858 282.752 384.461 282.551C385.874 275.382 387.657 268.604 389.128 261.758C390.604 254.885 392.287 248.054 393.89 241.154C392.107 240.071 390.451 240.224 388.604 240.779C384.89 254.636 381.737 268.631 377.472 282.525C375.774 282.715 374.245 283.027 372.71 283.032C359.652 283.064 346.594 283.043 333.536 283.011C332.563 283.011 331.589 282.758 330.266 282.573C330.547 281.299 330.695 280.253 331.002 279.255C334.933 266.491 338.875 253.733 342.838 240.974C345.335 232.939 347.89 224.914 350.382 216.879C355.536 200.274 360.663 183.665 365.8 167.06C371.313 149.23 376.805 131.395 382.34 113.57C386.329 100.727 390.382 87.9052 394.414 75.0728C394.684 74.2064 395.001 73.3506 395.244 72.6268C396.578 71.5332 398.012 71.8344 399.361 71.8344C415.085 71.8185 430.81 71.8344 446.535 71.8449C451.958 71.8502 457.387 71.8661 462.81 71.9295C463.953 71.9453 465.09 72.2042 466.238 72.3521C466.693 75.1785 465.921 77.5823 465.535 79.986C464.217 88.2063 462.752 96.4002 461.376 104.61C460.016 112.73 458.715 120.86 457.365 128.98C455.942 137.555 454.492 146.124 453.048 154.693C451.085 166.331 449.101 177.964 447.159 189.603C445.217 201.241 443.339 212.895 441.392 224.534C438.916 239.331 436.387 254.118 433.905 268.916C433.239 272.884 432.673 276.872 432.032 280.845C431.948 281.368 431.699 281.87 431.45 282.61L431.461 282.615ZM418.45 115.324C417.779 117.796 417.175 119.904 416.63 122.023C413.445 134.411 410.255 146.795 407.101 159.189C403.144 174.768 399.207 190.358 395.308 205.954C395.006 207.147 395.054 208.431 394.927 209.789H402.683C404.482 201.838 406.287 194.019 408.017 186.179C409.747 178.329 411.435 170.473 413.091 162.607C414.747 154.735 416.207 146.826 417.995 138.986C420.614 127.533 422.625 117.284 422.313 115.107C421.107 115.176 419.879 115.239 418.445 115.319L418.45 115.324Z" fill="white"/>
<path d="M101.565 302.796C101.877 302.717 102.221 302.553 102.565 302.547C104.21 302.521 105.861 302.537 107.501 302.537C110.591 306.747 112.459 311.581 115.718 315.533C115.798 315.628 116.067 315.565 116.586 315.602C118.03 314.16 119.665 312.585 121.231 310.947C123.321 308.766 125.411 306.589 127.395 304.312C128.591 302.944 129.951 302.336 131.755 302.5C133.104 302.621 134.464 302.595 136.152 302.648C135.935 304.587 135.834 306.288 135.538 307.952C134.48 313.89 133.348 319.807 132.274 325.74C132.11 326.633 131.771 327.478 130.861 327.531C128.792 327.652 126.692 327.89 124.475 327.293C125.131 323.257 125.766 319.337 126.491 314.894C125.496 315.438 124.898 315.618 124.512 316.009C123.216 317.303 122.036 318.708 120.739 320.003C119.644 321.096 118.581 322.29 117.279 323.077C114.999 324.461 113.396 324.002 111.872 321.804C110.623 319.997 109.496 318.106 108.247 316.294C107.877 315.755 107.285 315.359 106.634 314.751C105.263 316.833 106.046 318.951 105.427 320.832C104.84 322.633 104.782 324.604 104.449 326.754C102.353 328.339 99.9301 327.515 97.3164 327.51C97.2582 326.464 97.0571 325.65 97.1947 324.895C98.4751 317.789 99.8137 310.694 101.147 303.599C101.195 303.345 101.39 303.123 101.56 302.801L101.565 302.796Z" fill="#AAEF00"/>
<path d="M61.5601 310.947C58.994 311.481 56.539 311.106 54.0575 311.159C53.5443 310.435 53.0734 309.78 52.5284 309.019C48.0787 308.338 43.555 307.984 38.8619 308.924C38.5286 309.875 38.1212 310.694 37.9572 311.56C37.4863 313.98 37.2006 316.436 36.6662 318.84C36.4228 319.944 36.6344 320.805 37.2693 321.82C37.7984 321.947 38.4069 322.205 39.0206 322.216C42.3275 322.269 45.6343 322.237 48.9359 322.285C50.7983 322.311 51.8194 321.413 52.2427 319.49C50.3803 317.435 47.9465 318.819 45.6555 318.402C44.5391 317.704 44.8089 316.495 44.9042 315.332C45.5761 314.186 46.5814 313.568 47.8459 313.552C51.8829 313.499 55.9252 313.51 59.9622 313.52C60.2162 313.52 60.4701 313.684 60.9146 313.842C60.867 314.429 60.8775 315.031 60.7664 315.618C60.3432 317.768 59.9728 319.939 59.4067 322.052C58.4649 325.56 56.322 327.451 52.7507 327.541C46.6026 327.689 40.4386 327.737 34.2958 327.547C29.7985 327.409 27.7456 324.519 28.5499 320.145C29.1954 316.642 29.7774 313.135 30.4281 309.632C31.2059 305.474 33.3646 302.394 39.2534 302.505C44.2111 302.595 49.174 302.521 54.1316 302.526C54.6818 302.526 55.248 302.458 55.7824 302.547C59.1686 303.107 61.9146 304.344 61.6765 308.982C61.6447 309.606 61.6024 310.224 61.5601 310.958V310.947Z" fill="#AAEF00"/>
<path d="M217.601 310.858C215.225 311.46 212.945 311.164 210.559 311.18C210.093 310.541 209.622 309.891 209.093 309.162C205.379 308.179 201.516 308.359 197.675 308.496C195.601 308.57 194.659 309.468 194.278 311.471C193.802 313.985 193.395 316.516 193.104 319.057C192.998 319.976 193.299 320.943 193.442 322.073C195.093 322.142 196.453 322.237 197.807 322.253C200.199 322.285 202.585 322.269 204.977 322.28C206.733 322.285 207.977 321.582 208.49 319.823C207.955 318.354 206.738 318.37 205.522 318.444C204.363 318.513 203.209 318.64 201.998 318.75C201.723 318.006 201.458 317.52 201.363 317.007C200.966 314.751 201.728 313.774 204.03 313.536C204.574 313.478 205.13 313.526 205.686 313.52C208.442 313.494 211.199 313.452 213.955 313.446C214.85 313.446 215.744 313.536 216.643 313.589C217.273 315.75 216.352 317.562 216.156 319.432C216.061 320.335 215.85 321.239 215.596 322.116C214.611 325.523 212.4 327.462 208.844 327.547C202.781 327.684 196.712 327.647 190.643 327.547C189.411 327.526 188.136 327.024 186.982 326.506C185.654 325.914 184.845 324.805 184.866 323.246C184.871 322.697 184.76 322.132 184.845 321.598C185.548 317.181 186.035 312.712 187.088 308.38C188.136 304.074 190.622 302.532 195.188 302.516C200.426 302.5 205.67 302.505 210.908 302.516C216.31 302.526 218.521 305.184 217.59 310.852L217.601 310.858Z" fill="#AAEF00"/>
<path d="M152.956 302.902C153.575 302.701 153.66 302.653 153.744 302.648C159.337 302.114 159.527 302.268 163.099 306.547C166.035 310.06 169.12 313.452 172.162 316.88C172.374 317.118 172.771 317.187 173.215 317.393C174.919 315.116 174.353 312.39 175.03 309.997C175.696 307.646 176.009 305.2 176.501 302.695H184.083C182.548 311.043 181.056 319.163 179.506 327.594C177.702 327.594 175.956 327.774 174.273 327.52C173.384 327.388 172.448 326.659 171.813 325.946C168.511 322.264 165.31 318.492 162.051 314.772C161.294 313.911 160.459 313.119 159.533 312.163C158.162 314.091 158.194 316.077 157.771 317.889C157.21 320.288 156.966 322.755 156.517 325.18C156.374 325.956 156.009 326.685 155.734 327.473C153.263 327.578 151.009 327.911 148.517 327.367C150.014 319.115 151.49 310.979 152.951 302.907L152.956 302.902Z" fill="#AAEF00"/>
<path d="M94.1629 327.488H85.9408C85.4805 326.363 85.0678 325.37 84.5175 324.033C83.5652 323.843 82.4329 323.458 81.2901 323.421C78.3642 323.331 75.4277 323.304 72.5071 323.458C71.7081 323.5 70.8722 324.165 70.1949 324.715C69.6447 325.164 69.396 325.988 68.8405 326.421C68.1579 326.955 67.3167 327.536 66.5071 327.599C64.4119 327.763 62.3008 327.652 59.7665 327.652C60.158 326.722 60.3379 325.946 60.7612 325.349C64.6183 319.892 68.523 314.471 72.3907 309.019C73.396 307.603 74.3113 306.119 75.2637 304.666C76.2372 303.181 77.4806 302.352 79.3853 302.489C81.3906 302.632 83.4117 302.521 85.5387 302.521C88.4064 310.831 91.2318 319.02 94.1576 327.494L94.1629 327.488ZM74.8192 317.778C76.1049 317.884 76.9515 317.942 77.798 318.027C78.6181 318.111 79.4276 318.27 80.2477 318.317C81.1419 318.365 82.1207 318.555 82.8403 317.287C82.1684 315.01 81.4382 312.553 80.507 309.405C78.1472 312.189 76.4383 314.63 74.8192 317.778Z" fill="#AAEF00"/>
<path d="M144.226 327.478H136.67C136.252 324.715 139.914 305.089 141.311 302.674H148.305C148.305 303.599 148.427 304.492 148.284 305.337C147.66 309.03 146.956 312.712 146.279 316.394C145.617 319.981 144.951 323.568 144.226 327.478Z" fill="#AAEF00"/>
<path d="M307.981 161.788C307.981 161.259 307.88 160.699 307.997 160.192C312.552 140.434 317.134 120.681 321.705 100.938C324.176 100.352 326.314 100.695 328.764 101.329C328.822 102.032 329.049 102.835 328.917 103.569C328.393 106.538 327.832 109.502 327.15 112.439C323.711 127.216 320.256 141.992 316.743 156.758C315.526 161.867 314.843 162.633 308.785 162.173C308.536 162.152 308.304 161.946 307.981 161.788Z" fill="black"/>
<path d="M418.445 115.324C419.874 115.245 421.107 115.176 422.313 115.113C422.625 117.289 420.609 127.538 417.996 138.992C416.202 146.832 414.747 154.74 413.091 162.612C411.435 170.478 409.752 178.334 408.017 186.185C406.287 194.019 404.482 201.843 402.684 209.794H394.927C395.054 208.431 395.006 207.153 395.308 205.959C399.207 190.363 403.144 174.779 407.101 159.194C410.25 146.8 413.445 134.411 416.63 122.028C417.175 119.909 417.773 117.807 418.451 115.329L418.445 115.324Z" fill="black"/>
<path d="M74.8246 317.784C76.4436 314.64 78.1579 312.194 80.5124 309.41C81.4436 312.554 82.1684 315.015 82.8457 317.292C82.1261 318.555 81.1526 318.37 80.2531 318.323C79.433 318.28 78.6182 318.116 77.8034 318.032C76.9568 317.947 76.1103 317.889 74.8246 317.784Z" fill="black"/>
</svg>
