<svg width="569" height="136" viewBox="0 0 569 136" fill="none" xmlns="http://www.w3.org/2000/svg">
<g clip-path="url(#clip0_32_275)">
<path d="M523.875 45.1251H368.489C355.613 45.1251 343.906 53.0249 339.489 65.1344C331.296 87.5768 309.744 103.647 284.5 103.647C259.256 103.647 237.697 87.5767 229.511 65.1344C225.094 53.0249 213.387 45.1251 200.511 45.1251H45.1252C20.2033 45.1251 -1.2219e-06 65.3284 -1.2219e-06 90.2503C-1.2219e-06 115.172 20.2033 135.375 45.1252 135.375H523.875C548.797 135.375 569 115.172 569 90.2503C569 65.3284 548.797 45.1251 523.875 45.1251Z" fill="#623AEC" stroke="url(#paint0_linear_32_275)" stroke-width="0.705081" stroke-miterlimit="10"/>
<path d="M284.5 90.2503C309.422 90.2503 329.625 70.0471 329.625 45.1252C329.625 20.2032 309.422 -1.2219e-06 284.5 -1.2219e-06C259.578 -1.2219e-06 239.375 20.2032 239.375 45.1252C239.375 70.0471 259.578 90.2503 284.5 90.2503Z" fill="#623AEC" stroke="url(#paint1_linear_32_275)" stroke-width="0.705081" stroke-miterlimit="10"/>
<path d="M283.442 107.877V131.145C283.442 132.506 285.558 132.506 285.558 131.145V107.877C285.558 106.516 283.442 106.516 283.442 107.877Z" fill="white"/>
<path d="M114.928 57.9364C123.008 57.9364 131.082 57.9435 139.162 57.9364C141.763 57.9364 143.78 59.5652 144.492 61.6593C144.711 62.3009 144.781 62.9566 144.781 63.6335C144.781 65.227 144.781 66.8205 144.781 68.4139C144.781 75.9936 144.781 83.5732 144.788 91.1528C144.788 92.3867 144.534 93.5289 143.815 94.5372C142.722 96.0602 141.235 96.878 139.359 96.8921C135.474 96.9133 131.596 96.8992 127.711 96.8992C115.436 96.8992 103.16 96.8992 90.8919 96.8992C89.9683 96.8992 89.0799 96.7582 88.2549 96.3281C86.3865 95.3551 85.3712 93.818 85.2019 91.7239C85.1878 91.5265 85.1878 91.3291 85.1878 91.1246C85.1878 82.0079 85.1878 72.8912 85.1878 63.7745C85.1878 63.1329 85.2372 62.4983 85.4135 61.8778C86.0621 59.678 88.0011 58.0916 90.2856 57.9717C91.6605 57.9012 93.0424 57.9435 94.4244 57.9435C96.4832 57.9435 98.5491 57.9435 100.608 57.9435C105.388 57.9435 110.169 57.9435 114.942 57.9435L114.928 57.9364ZM87.3242 74.5975C87.3242 74.8513 87.3242 75.077 87.3242 75.2955C87.3242 80.3862 87.3242 85.4769 87.3242 90.5676C87.3242 90.8496 87.3172 91.1387 87.3242 91.4207C87.4018 93.3597 88.8472 94.7416 90.7862 94.7346C91.4701 94.7346 92.154 94.7346 92.8309 94.7346C102.187 94.7346 111.544 94.7346 120.9 94.7346C126.929 94.7346 132.957 94.7346 138.985 94.7346C139.352 94.7346 139.726 94.7134 140.085 94.6218C141.63 94.2481 142.61 92.9507 142.61 91.3009C142.61 85.8858 142.61 80.4638 142.61 75.0487C142.61 74.9077 142.595 74.7738 142.588 74.6045H87.3172L87.3242 74.5975ZM87.3524 66.5737C105.628 66.5737 123.862 66.5737 142.095 66.5737C142.236 66.5737 142.377 66.5596 142.518 66.5525C142.532 66.5525 142.539 66.5384 142.553 66.5314C142.567 66.5243 142.574 66.5102 142.588 66.5032C142.595 66.4679 142.61 66.4256 142.61 66.3833C142.61 65.3327 142.638 64.2751 142.61 63.2245C142.56 61.7791 141.467 60.4888 140.043 60.1927C139.669 60.1151 139.282 60.1081 138.901 60.1081C125.631 60.1081 112.362 60.1081 99.092 60.1081C96.307 60.1081 93.5148 60.1081 90.7298 60.1081C89.7144 60.1081 88.8754 60.4677 88.1915 61.208C87.6274 61.8214 87.3524 62.5618 87.3383 63.3797C87.3172 64.3597 87.3242 65.3398 87.3242 66.3269C87.3242 66.3974 87.3454 66.4609 87.3595 66.5878L87.3524 66.5737ZM87.3595 72.4047C87.5992 72.4047 87.7966 72.4047 87.9941 72.4047C96.4973 72.4047 105.008 72.4047 113.511 72.4047C121.076 72.4047 128.642 72.4047 136.215 72.4047C138.189 72.4047 140.17 72.4047 142.144 72.4047C142.292 72.4047 142.44 72.3835 142.588 72.3765V68.7453H87.3665V72.4047H87.3595Z" fill="white" fill-opacity="0.6"/>
<path d="M132.675 90.7579C131.977 90.7579 131.279 90.7297 130.588 90.7579C129.298 90.8144 127.902 89.8343 127.902 88.1209C127.902 86.9153 127.902 85.7025 127.902 84.4968C127.902 84.1443 127.895 83.7847 127.93 83.4322C128.064 82.163 129.086 81.2041 130.362 81.183C131.914 81.1618 133.465 81.1547 135.009 81.183C136.356 81.2041 137.448 82.2829 137.477 83.6366C137.512 85.1878 137.512 86.739 137.477 88.2831C137.448 89.658 136.356 90.7227 134.981 90.7509C134.212 90.765 133.444 90.7509 132.675 90.7509V90.7579ZM132.675 88.9529C133.401 88.9529 134.127 88.96 134.854 88.9529C135.347 88.9529 135.615 88.6991 135.679 88.2126C135.693 88.0857 135.693 87.9588 135.693 87.8319C135.693 86.8941 135.693 85.9563 135.693 85.0186C135.693 84.6237 135.7 84.2218 135.679 83.827C135.65 83.2629 135.368 82.995 134.818 82.995C133.394 82.995 131.977 82.995 130.553 82.995C129.996 82.995 129.714 83.277 129.714 83.8411C129.714 85.2654 129.714 86.6826 129.714 88.1068C129.714 88.685 129.996 88.96 130.588 88.967C131.286 88.967 131.984 88.967 132.675 88.967V88.9529Z" fill="white" fill-opacity="0.6"/>
<path d="M92.6546 86.189V84.1161C92.9649 84.0244 109.217 84.0103 109.633 84.102V86.189H92.6546Z" fill="white" fill-opacity="0.6"/>
<path d="M92.6687 88.3959H103.485V90.483C103.181 90.5746 93.1129 90.5887 92.6687 90.4971V88.3959Z" fill="white" fill-opacity="0.6"/>
<path d="M97.3483 110.463L94.5097 121.352H91.2987L89.5614 114.185L87.762 121.352H84.5511L81.79 110.463H84.6287L86.1953 118.389L88.1343 110.463H91.0505L92.9119 118.389L94.4941 110.463H97.3483ZM101.254 117.009C101.254 116.119 101.419 115.339 101.75 114.666C102.091 113.994 102.551 113.477 103.13 113.115C103.71 112.753 104.356 112.572 105.069 112.572C105.68 112.572 106.212 112.696 106.667 112.945C107.132 113.193 107.489 113.518 107.737 113.922V112.696H110.39V121.352H107.737V120.126C107.479 120.53 107.117 120.856 106.652 121.104C106.197 121.352 105.664 121.476 105.054 121.476C104.351 121.476 103.71 121.295 103.13 120.933C102.551 120.561 102.091 120.039 101.75 119.366C101.419 118.684 101.254 117.898 101.254 117.009ZM107.737 117.024C107.737 116.362 107.551 115.84 107.179 115.457C106.817 115.075 106.372 114.884 105.845 114.884C105.318 114.884 104.868 115.075 104.495 115.457C104.134 115.83 103.953 116.347 103.953 117.009C103.953 117.67 104.134 118.198 104.495 118.591C104.868 118.973 105.318 119.165 105.845 119.165C106.372 119.165 106.817 118.973 107.179 118.591C107.551 118.208 107.737 117.686 107.737 117.024ZM118.064 109.873V121.352H115.411V109.873H118.064ZM125.741 109.873V121.352H123.088V109.873H125.741ZM138.925 116.885C138.925 117.133 138.909 117.391 138.878 117.66H132.875C132.916 118.198 133.087 118.612 133.387 118.901C133.697 119.18 134.075 119.32 134.519 119.32C135.181 119.32 135.641 119.041 135.9 118.482H138.723C138.578 119.051 138.315 119.563 137.932 120.018C137.56 120.473 137.089 120.83 136.52 121.088C135.952 121.347 135.316 121.476 134.612 121.476C133.764 121.476 133.01 121.295 132.348 120.933C131.686 120.571 131.169 120.054 130.797 119.382C130.424 118.71 130.238 117.924 130.238 117.024C130.238 116.124 130.419 115.339 130.781 114.666C131.153 113.994 131.67 113.477 132.332 113.115C132.994 112.753 133.754 112.572 134.612 112.572C135.45 112.572 136.195 112.748 136.846 113.1C137.498 113.451 138.004 113.953 138.366 114.604C138.739 115.256 138.925 116.016 138.925 116.885ZM136.21 116.187C136.21 115.731 136.055 115.37 135.745 115.101C135.435 114.832 135.047 114.697 134.581 114.697C134.137 114.697 133.759 114.827 133.449 115.085C133.149 115.344 132.963 115.711 132.891 116.187H136.21ZM148.251 119.103V121.352H146.901C145.939 121.352 145.19 121.119 144.652 120.654C144.114 120.178 143.845 119.408 143.845 118.343V114.899H142.79V112.696H143.845V110.587H146.498V112.696H148.235V114.899H146.498V118.374C146.498 118.632 146.56 118.818 146.684 118.932C146.808 119.046 147.015 119.103 147.304 119.103H148.251Z" fill="white" fill-opacity="0.6"/>
<path d="M427.117 113.968C427.117 114.599 426.972 115.178 426.682 115.706C426.393 116.223 425.948 116.642 425.348 116.962C424.749 117.283 424.004 117.443 423.115 117.443H421.47V121.352H418.818V110.463H423.115C423.983 110.463 424.717 110.613 425.317 110.913C425.917 111.212 426.367 111.626 426.667 112.153C426.967 112.681 427.117 113.286 427.117 113.968ZM422.913 115.333C423.42 115.333 423.797 115.214 424.045 114.977C424.294 114.739 424.418 114.403 424.418 113.968C424.418 113.534 424.294 113.198 424.045 112.96C423.797 112.722 423.42 112.603 422.913 112.603H421.47V115.333H422.913ZM434.252 114.139C434.563 113.663 434.95 113.291 435.416 113.022C435.881 112.743 436.398 112.603 436.967 112.603V115.411H436.238C435.576 115.411 435.08 115.556 434.749 115.845C434.418 116.124 434.252 116.621 434.252 117.334V121.352H431.6V112.696H434.252V114.139ZM445.277 121.476C444.429 121.476 443.664 121.295 442.981 120.933C442.309 120.571 441.777 120.054 441.384 119.382C441.001 118.71 440.81 117.924 440.81 117.024C440.81 116.135 441.006 115.354 441.399 114.682C441.792 113.999 442.33 113.477 443.012 113.115C443.695 112.753 444.46 112.572 445.308 112.572C446.156 112.572 446.921 112.753 447.604 113.115C448.286 113.477 448.824 113.999 449.217 114.682C449.61 115.354 449.807 116.135 449.807 117.024C449.807 117.913 449.605 118.699 449.202 119.382C448.809 120.054 448.266 120.571 447.573 120.933C446.89 121.295 446.125 121.476 445.277 121.476ZM445.277 119.18C445.784 119.18 446.213 118.994 446.565 118.622C446.927 118.25 447.108 117.717 447.108 117.024C447.108 116.331 446.932 115.799 446.58 115.426C446.239 115.054 445.815 114.868 445.308 114.868C444.791 114.868 444.362 115.054 444.021 115.426C443.679 115.788 443.509 116.321 443.509 117.024C443.509 117.717 443.674 118.25 444.005 118.622C444.346 118.994 444.77 119.18 445.277 119.18ZM458.659 114.899H457.232V121.352H454.58V114.899H453.618V112.696H454.58V112.448C454.58 111.383 454.885 110.576 455.495 110.028C456.105 109.47 457 109.191 458.179 109.191C458.375 109.191 458.52 109.196 458.613 109.206V111.455C458.106 111.424 457.749 111.497 457.543 111.673C457.336 111.848 457.232 112.164 457.232 112.619V112.696H458.659V114.899ZM464.342 111.797C463.877 111.797 463.494 111.662 463.194 111.393C462.905 111.114 462.76 110.773 462.76 110.37C462.76 109.956 462.905 109.615 463.194 109.346C463.494 109.067 463.877 108.927 464.342 108.927C464.797 108.927 465.17 109.067 465.459 109.346C465.759 109.615 465.909 109.956 465.909 110.37C465.909 110.773 465.759 111.114 465.459 111.393C465.17 111.662 464.797 111.797 464.342 111.797ZM465.661 112.696V121.352H463.008V112.696H465.661ZM473.338 109.873V121.352H470.685V109.873H473.338ZM486.522 116.885C486.522 117.133 486.506 117.391 486.475 117.66H480.472C480.513 118.198 480.684 118.612 480.984 118.901C481.294 119.18 481.672 119.32 482.116 119.32C482.778 119.32 483.238 119.041 483.497 118.482H486.32C486.175 119.051 485.912 119.563 485.529 120.018C485.157 120.473 484.686 120.83 484.117 121.088C483.549 121.347 482.913 121.476 482.209 121.476C481.361 121.476 480.606 121.295 479.945 120.933C479.283 120.571 478.766 120.054 478.393 119.382C478.021 118.71 477.835 117.924 477.835 117.024C477.835 116.124 478.016 115.339 478.378 114.666C478.75 113.994 479.267 113.477 479.929 113.115C480.591 112.753 481.351 112.572 482.209 112.572C483.047 112.572 483.792 112.748 484.443 113.1C485.095 113.451 485.601 113.953 485.963 114.604C486.336 115.256 486.522 116.016 486.522 116.885ZM483.807 116.187C483.807 115.731 483.652 115.37 483.342 115.101C483.031 114.832 482.644 114.697 482.178 114.697C481.734 114.697 481.356 114.827 481.046 115.085C480.746 115.344 480.56 115.711 480.488 116.187H483.807Z" fill="white" fill-opacity="0.6"/>
<path d="M452.894 96.8781C448.05 96.8781 443.2 96.8781 438.356 96.8781C437.474 96.8781 436.381 95.75 436.424 94.8827C436.84 86.8801 442.41 80.5907 450.293 79.2229C459.191 77.6788 467.99 84.1373 469.196 93.0918C469.245 93.4514 469.245 93.8251 469.33 94.1776C469.555 95.1507 469.252 95.9121 468.434 96.448C468.138 96.6454 467.765 96.8569 467.433 96.8569C462.589 96.8851 457.738 96.8781 452.894 96.8781ZM466.566 94.1353C466.143 87.7191 460.262 81.324 452.168 81.74C444.342 82.1419 439.441 88.7556 439.265 94.1353H466.566Z" fill="white" fill-opacity="0.6"/>
<path d="M443.446 67.0461C443.467 61.7933 447.733 57.5769 452.986 57.6122C458.19 57.6474 462.371 61.9131 462.35 67.1589C462.335 72.3342 458.063 76.5859 452.901 76.5647C447.642 76.5436 443.418 72.299 443.439 67.0461H443.446ZM446.154 67.1096C446.161 70.8536 449.221 73.8854 452.958 73.8572C456.638 73.829 459.649 70.8042 459.649 67.1307C459.649 63.3445 456.61 60.2985 452.845 60.3197C449.143 60.3408 446.147 63.3797 446.154 67.1166V67.1096Z" fill="white" fill-opacity="0.6"/>
<path d="M301.22 56.613C301.22 59.4051 301.22 62.1972 301.22 64.9893C301.22 66.3501 300.529 67.0411 299.155 67.0411C296.384 67.0411 293.606 67.0411 290.835 67.0411C289.572 67.0411 288.846 66.3219 288.846 65.0669C288.846 61.3088 288.846 57.5578 288.846 53.7997C288.846 53.4683 288.839 53.1087 288.733 52.8055C288.536 52.2344 288.071 51.9524 287.471 51.9524C285.173 51.9453 282.867 51.9312 280.569 51.9524C279.708 51.9594 279.215 52.5305 279.215 53.4542C279.208 57.2757 279.208 61.0973 279.215 64.9259C279.215 66.3572 278.531 67.0411 277.107 67.0411C274.364 67.0411 271.628 67.0411 268.885 67.0411C267.539 67.0411 266.834 66.3572 266.834 65.0246C266.834 59.3769 266.834 53.7221 266.848 48.0744C266.848 47.8488 266.989 47.5456 267.158 47.3976C272.354 42.9344 277.558 38.4853 282.768 34.0433C283.579 33.3523 284.503 33.3665 285.342 34.0856C288.635 36.8989 291.92 39.7122 295.213 42.5254C297.075 44.1189 298.943 45.7124 300.811 47.2918C301.108 47.5386 301.235 47.7924 301.235 48.1943C301.213 51.0005 301.227 53.8067 301.227 56.62L301.22 56.613Z" fill="white" fill-opacity="0.6"/>
<path d="M304.125 46.488C303.23 46.4739 302.553 46.1848 301.947 45.6701C296.475 40.9884 290.997 36.3066 285.518 31.6249C284.411 30.6801 283.636 30.666 282.522 31.6249C277.043 36.3066 271.572 40.9884 266.093 45.6701C264.817 46.7559 263.083 46.77 261.947 45.6842C260.855 44.6407 260.664 42.8709 261.602 41.7146C262.032 41.1858 262.589 40.7486 263.118 40.2974C269.583 34.7696 276.049 29.2417 282.515 23.7139C283.629 22.762 284.404 22.762 285.511 23.7139C292.16 29.3968 298.802 35.0727 305.458 40.7486C306.177 41.3621 306.84 41.9825 306.995 42.9908C307.277 44.8381 305.895 46.488 304.125 46.488Z" fill="white" fill-opacity="0.6"/>
</g>
<defs>
<linearGradient id="paint0_linear_32_275" x1="284.5" y1="135.023" x2="284.5" y2="45.4777" gradientUnits="userSpaceOnUse">
<stop/>
<stop offset="1" stop-color="white"/>
</linearGradient>
<linearGradient id="paint1_linear_32_275" x1="284.5" y1="89.8978" x2="284.5" y2="0.352539" gradientUnits="userSpaceOnUse">
<stop/>
<stop offset="1" stop-color="white"/>
</linearGradient>
<clipPath id="clip0_32_275">
<rect width="569" height="135.375" fill="white"/>
</clipPath>
</defs>
</svg>
