<svg width="273" height="199" viewBox="0 0 273 199" fill="none" xmlns="http://www.w3.org/2000/svg">
<g clip-path="url(#clip0_21_116)">
<path d="M264.06 28.23H138.99L143.07 10.43C143.91 6.8 142.46 4.28 141.52 3.1C139.95 1.13 137.58 0 135.01 0C134.81 0 134.62 0.01 134.42 0.02L43.16 0.14L42.56 0.24C38.77 0.84 38.78 3.51 37.94 7.21L0 185.41V186.26C0 193.65 5.75 198.06 11.31 198.06L239.45 197.91L240.04 197.82C243.84 197.23 246.72 194.63 247.55 191.03L247.6 190.8L272.35 37.51V36.88C272.35 31.47 268.14 28.23 264.06 28.23Z" fill="#050326"/>
<path d="M42.1 160.71C49.5 160.71 55.84 159.36 61.11 156.68C66.39 153.99 69.84 149.03 71.47 141.79L79.3 107.73C79.84 105.21 80.12 103.29 80.12 101.97C80.12 99.45 79.28 97.66 77.59 96.62C75.9 95.58 73.05 95.06 69.02 95.06H59.88C58.57 95.06 57.65 94.95 57.11 94.73C56.57 94.51 56.29 94.07 56.29 93.41C56.29 92.86 56.34 92.42 56.45 92.09L63.3 62.31C63.52 61.21 64.9 60.67 65.66 60.67C66.42 60.67 66.8 61.05 66.8 61.82C66.8 61.82 66.83 62.19 66.8 62.31C65.24 68.87 59.78 91.37 59.78 91.37C59.78 91.92 60 92.19 60.43 92.19H81.74C82.39 92.19 82.72 91.92 82.72 91.37L94.99 39.93C94.99 39.67 94.82 39.53 94.47 39.52H45.77C45.23 39.52 44.85 39.79 44.63 40.34L31.8 95.39C31.47 96.82 31.31 98.19 31.31 99.5C31.31 102.24 32.23 104.3 34.08 105.67C35.93 107.04 38.87 107.73 42.89 107.73H52.52C54.04 107.73 54.8 108.28 54.8 109.38C54.8 109.6 54.69 110.26 54.47 111.35L47.62 141.96C47.3 143.06 45.81 143.61 44.94 143.61C44.07 143.61 43.8 143.06 44.12 141.96L51.3 111.58C51.3 111.03 51.08 110.76 50.65 110.76H29.34C28.69 110.76 28.36 111.03 28.36 111.58L21.18 141.79C20.74 143.55 20.53 145.3 20.53 147.06C20.56 156.16 27.74 160.71 42.1 160.71Z" fill="white"/>
<path d="M258.88 39.89H220.74C220.28 39.89 219.88 40.18 219.53 40.75L183.64 157.75C183.53 157.98 183.56 158.18 183.73 158.35C183.9 158.52 184.1 158.61 184.33 158.61H209C209.46 158.61 209.81 158.32 210.04 157.75L215.91 134.65H219.19L213.84 157.75C213.61 158.32 213.84 158.61 214.53 158.61H239.04C239.73 158.61 240.07 158.32 240.07 157.75L259.4 40.75C259.39 40.18 259.22 39.89 258.88 39.89ZM227.84 99.63L223.87 117.58H219.16L223.48 99.63L232.45 64.08H235.26L227.84 99.63Z" fill="white"/>
<path d="M46.69 34.24L102.01 34.16L78.2 137.93C77.51 141.15 77.17 144.03 77.17 146.56C77.17 151.51 78.87 155.1 82.26 157.35C85.66 159.59 91.32 160.72 99.26 160.72C106.16 160.72 111.71 159.91 115.91 158.3C120.11 156.69 123.3 154.25 125.49 150.97C127.67 147.69 129.4 143.35 130.67 137.94L153.28 40.76C153.51 40.19 153.34 39.9 152.76 39.9H130.53C129.95 39.9 129.55 40.19 129.32 40.76L106.02 140.87C105.79 142.02 105.22 142.59 104.3 142.59C103.61 142.59 101.49 142.24 101.49 141.56V140.87L126.14 33.43C126.14 33.43 126.18 33.35 126.19 33.3L130.94 12.6C131.1 11.92 130.86 11.63 130.25 11.73L51.83 11.85C51.21 11.95 50.84 12.28 50.71 12.84L45.96 33.54C45.83 34.1 46.08 34.33 46.69 34.24Z" fill="white"/>
<path d="M239.47 163.82L153.83 163.91L166.93 107.73H169.74C170.66 107.73 171.12 108.13 171.12 108.94C171.12 109.51 170.95 110.61 170.6 112.22L159.77 157.75C159.54 158.32 159.77 158.61 160.46 158.61H179.18C179.64 158.61 179.98 158.32 180.21 157.75L190.87 112.57C191.33 110.84 191.56 109.12 191.56 107.39C191.56 102.67 188.97 99.97 183.79 99.28L184.13 97.9C187.81 96.98 190.8 95.11 193.1 92.29C195.4 89.47 197.07 85.99 198.1 81.85L207.83 40.33C207.83 40.05 207.65 39.91 207.28 39.9H160.87C160.3 39.9 159.89 40.19 159.66 40.76L125.92 185.63C125.79 186.19 126.03 186.43 126.65 186.33L235.66 186.21C236.28 186.11 236.64 185.84 236.74 185.39L240.17 164.69C240.32 164.02 240.09 163.72 239.47 163.82ZM178.83 56.14H181.64C182.56 56.14 183.02 56.54 183.02 57.35C183.02 57.58 182.91 58.16 182.68 59.08L182.31 60.69L176.29 87.03C176.06 88.41 175.74 89.39 175.34 89.97C174.94 90.54 174.34 90.83 173.53 90.83H170.89L178.83 56.14Z" fill="white"/>
<path d="M19.32 183.94C16.52 183.94 15.23 182.4 15.74 179.58L16.83 173.5C17.34 170.64 18.64 169.55 21.46 169.55H30.75C33.57 169.55 34.84 171.05 34.35 173.91L34.18 174.86H29.6L29.66 174.49C29.82 173.5 29.52 173.13 28.53 173.13H22.71C21.72 173.13 21.37 173.42 21.21 174.4L20.37 179.25C20.19 180.22 20.51 180.61 21.48 180.61H27.46C28.45 180.61 28.78 180.3 28.96 179.31L29.08 178.73H24.7L25.19 175.83H33.97L33.25 179.98C32.76 182.84 31.42 183.93 28.6 183.93H19.32V183.94Z" fill="#97F300"/>
<path d="M47.67 183.94L47.01 181.62H39.4L37.92 183.94H32.7L42.61 169.55H47.77L52.56 183.94H47.67ZM41.4 178.47H46.13L44.67 173.31L41.4 178.47Z" fill="#97F300"/>
<path d="M71.71 169.55H75.84L73.29 183.94H68.99L70.39 176.09L65.09 181.7H62.69L59.38 176.09L57.98 183.94H53.68L56.23 169.55H59.97L64.47 177.34L71.71 169.55Z" fill="#97F300"/>
<path d="M78.13 169.55H82.75L80.2 183.94H75.58L78.13 169.55Z" fill="#97F300"/>
<path d="M98 169.55H102.4L99.85 183.94H96.15L88.46 174.85L86.86 183.94H82.46L85.01 169.55H88.89L96.43 178.43L98 169.55Z" fill="#97F300"/>
<path d="M106.22 183.94C103.42 183.94 102.13 182.4 102.64 179.58L103.73 173.5C104.24 170.64 105.54 169.55 108.36 169.55H117.65C120.47 169.55 121.74 171.05 121.25 173.91L121.08 174.86H116.5L116.56 174.49C116.72 173.5 116.42 173.13 115.43 173.13H109.61C108.62 173.13 108.27 173.42 108.11 174.4L107.27 179.25C107.09 180.22 107.41 180.61 108.38 180.61H114.36C115.35 180.61 115.68 180.3 115.86 179.31L115.98 178.73H111.6L112.09 175.83H120.87L120.15 179.98C119.66 182.84 118.32 183.93 115.5 183.93H106.22V183.94Z" fill="#97F300"/>
</g>
<defs>
<clipPath id="clip0_21_116">
<rect width="272.35" height="198.06" fill="white"/>
</clipPath>
</defs>
</svg>
