<svg width="69" height="71" viewBox="0 0 69 71" fill="none" xmlns="http://www.w3.org/2000/svg">
<path d="M33.9281 0.936442C42.0084 0.936442 50.0815 0.943493 58.1618 0.936442C60.7635 0.936442 62.78 2.56518 63.4922 4.65927C63.7107 5.30089 63.7812 5.95662 63.7812 6.63349C63.7812 8.22698 63.7812 9.82046 63.7812 11.4139C63.7812 18.9936 63.7812 26.5732 63.7883 34.1528C63.7883 35.3867 63.5345 36.5289 62.8153 37.5372C61.7224 39.0602 60.2347 39.878 58.3592 39.8921C54.4742 39.9133 50.5962 39.8992 46.7113 39.8992C34.4358 39.8992 22.1603 39.8992 9.89194 39.8992C8.96828 39.8992 8.07988 39.7582 7.25494 39.3281C5.38647 38.3551 4.37115 36.818 4.20193 34.7239C4.18783 34.5265 4.18784 34.3291 4.18784 34.1246C4.18784 25.0079 4.18784 15.8912 4.18784 6.77451C4.18784 6.13288 4.23719 5.49832 4.41346 4.87785C5.06214 2.67799 7.00111 1.09156 9.28557 0.971698C10.6605 0.90119 12.0424 0.943494 13.4244 0.943494C15.4832 0.943494 17.5491 0.943494 19.6079 0.943494C24.3884 0.943494 29.1688 0.943494 33.9422 0.943494L33.9281 0.936442ZM6.32423 17.5975C6.32423 17.8513 6.32423 18.077 6.32423 18.2955C6.32423 23.3862 6.32423 28.4769 6.32423 33.5676C6.32423 33.8496 6.31718 34.1387 6.32423 34.4207C6.40179 36.3597 7.8472 37.7416 9.78617 37.7346C10.4701 37.7346 11.154 37.7346 11.8309 37.7346C21.1873 37.7346 30.5437 37.7346 39.9002 37.7346C45.9286 37.7346 51.957 37.7346 57.9855 37.7346C58.3521 37.7346 58.7258 37.7134 59.0854 37.6218C60.6295 37.2481 61.6096 35.9507 61.6096 34.3009C61.6096 28.8858 61.6096 23.4638 61.6096 18.0487C61.6096 17.9077 61.5955 17.7738 61.5884 17.6045H6.31718L6.32423 17.5975ZM6.35243 9.57368C24.6281 9.57368 42.8615 9.57368 61.0949 9.57368C61.2359 9.57368 61.3769 9.55958 61.5179 9.55253C61.532 9.55253 61.5391 9.53843 61.5532 9.53138C61.5673 9.52433 61.5743 9.51022 61.5884 9.50317C61.5955 9.46792 61.6096 9.42561 61.6096 9.38331C61.6096 8.33274 61.6378 7.27512 61.6096 6.22455C61.5602 4.77913 60.4674 3.48884 59.0431 3.1927C58.6694 3.11514 58.2816 3.10809 57.9009 3.10809C44.6313 3.10809 31.3616 3.10809 18.092 3.10809C15.307 3.10809 12.5148 3.10809 9.72976 3.10809C8.71445 3.10809 7.87541 3.46768 7.19148 4.20802C6.62742 4.82144 6.35244 5.56177 6.33833 6.37966C6.31718 7.35973 6.32423 8.33979 6.32423 9.3269C6.32423 9.39741 6.34538 9.46087 6.35949 9.58778L6.35243 9.57368ZM6.35949 15.4047C6.59921 15.4047 6.79664 15.4047 6.99406 15.4047C15.4973 15.4047 24.0077 15.4047 32.5109 15.4047C40.0764 15.4047 47.642 15.4047 55.2145 15.4047C57.1887 15.4047 59.17 15.4047 61.1442 15.4047C61.2923 15.4047 61.4404 15.3835 61.5884 15.3765V11.7453H6.36654V15.4047H6.35949Z" fill="white"/>
<path d="M51.675 33.7579C50.977 33.7579 50.279 33.7297 49.588 33.7579C48.2977 33.8144 46.9016 32.8343 46.9016 31.1209C46.9016 29.9153 46.9016 28.7025 46.9016 27.4968C46.9016 27.1443 46.8946 26.7847 46.9298 26.4322C47.0638 25.163 48.0862 24.2041 49.3624 24.183C50.9135 24.1618 52.4647 24.1547 54.0088 24.183C55.3555 24.2041 56.4484 25.2829 56.4766 26.6366C56.5119 28.1878 56.5119 29.739 56.4766 31.2831C56.4484 32.658 55.3555 33.7227 53.9806 33.7509C53.2121 33.765 52.4436 33.7509 51.675 33.7509V33.7579ZM51.675 31.9529C52.4012 31.9529 53.1275 31.96 53.8537 31.9529C54.3473 31.9529 54.6152 31.6991 54.6787 31.2126C54.6928 31.0857 54.6928 30.9588 54.6928 30.8319C54.6928 29.8941 54.6928 28.9563 54.6928 28.0186C54.6928 27.6237 54.6998 27.2218 54.6787 26.827C54.6505 26.2629 54.3684 25.995 53.8185 25.995C52.3942 25.995 50.977 25.995 49.5527 25.995C48.9957 25.995 48.7137 26.277 48.7137 26.8411C48.7137 28.2654 48.7137 29.6826 48.7137 31.1068C48.7137 31.685 48.9957 31.96 49.588 31.967C50.286 31.967 50.984 31.967 51.675 31.967V31.9529Z" fill="white"/>
<path d="M11.6546 29.189V27.1161C11.9649 27.0244 28.217 27.0103 28.633 27.102V29.189H11.6546Z" fill="white"/>
<path d="M11.6687 31.3959H22.4847V33.483C22.1815 33.5746 12.1129 33.5887 11.6687 33.4971V31.3959Z" fill="white"/>
<path d="M16.3483 53.4627L13.5097 64.3519H10.2987L8.5614 57.1855L6.76203 64.3519H3.55109L0.789997 53.4627H3.62865L5.19534 61.3892L7.13431 53.4627H10.0505L11.9119 61.3892L13.4941 53.4627H16.3483ZM20.2535 60.0086C20.2535 59.1193 20.419 58.3385 20.7499 57.6664C21.0911 56.9942 21.5513 56.4771 22.1304 56.1152C22.7095 55.7532 23.3559 55.5723 24.0694 55.5723C24.6795 55.5723 25.2121 55.6964 25.6671 55.9445C26.1325 56.1927 26.4892 56.5185 26.7374 56.9218V55.6964H29.3899V64.3519H26.7374V63.1265C26.4789 63.5298 26.117 63.8556 25.6516 64.1037C25.1966 64.3519 24.664 64.476 24.0539 64.476C23.3507 64.476 22.7095 64.2951 22.1304 63.9331C21.5513 63.5608 21.0911 63.0386 20.7499 62.3664C20.419 61.6839 20.2535 60.898 20.2535 60.0086ZM26.7374 60.0241C26.7374 59.3623 26.5513 58.8401 26.179 58.4575C25.8171 58.0748 25.3724 57.8835 24.845 57.8835C24.3176 57.8835 23.8678 58.0748 23.4955 58.4575C23.1335 58.8297 22.9526 59.3468 22.9526 60.0086C22.9526 60.6705 23.1335 61.1979 23.4955 61.5908C23.8678 61.9735 24.3176 62.1648 24.845 62.1648C25.3724 62.1648 25.8171 61.9735 26.179 61.5908C26.5513 61.2082 26.7374 60.686 26.7374 60.0241ZM37.0638 52.8732V64.3519H34.4113V52.8732H37.0638ZM44.7409 52.8732V64.3519H42.0884V52.8732H44.7409ZM57.9247 59.8845C57.9247 60.1327 57.9092 60.3913 57.8782 60.6601H51.8751C51.9165 61.1979 52.0871 61.6115 52.387 61.9011C52.6972 62.1803 53.0747 62.3199 53.5194 62.3199C54.1812 62.3199 54.6414 62.0407 54.8999 61.4823H57.723C57.5783 62.051 57.3146 62.5629 56.9319 63.0179C56.5597 63.4729 56.0891 63.8297 55.5204 64.0882C54.9516 64.3468 54.3156 64.476 53.6124 64.476C52.7645 64.476 52.0095 64.2951 51.3477 63.9331C50.6859 63.5712 50.1688 63.0541 49.7965 62.3819C49.4243 61.7098 49.2381 60.9238 49.2381 60.0241C49.2381 59.1245 49.4191 58.3385 49.781 57.6664C50.1533 56.9942 50.6704 56.4771 51.3322 56.1152C51.994 55.7532 52.7541 55.5723 53.6124 55.5723C54.4501 55.5723 55.1946 55.7481 55.8461 56.0997C56.4976 56.4513 57.0043 56.9528 57.3663 57.6043C57.7386 58.2558 57.9247 59.0159 57.9247 59.8845ZM55.2101 59.1865C55.2101 58.7315 55.055 58.3696 54.7448 58.1007C54.4346 57.8318 54.0468 57.6974 53.5814 57.6974C53.1367 57.6974 52.7593 57.8266 52.449 58.0852C52.1492 58.3437 51.963 58.7108 51.8906 59.1865H55.2101ZM67.2505 62.1027V64.3519H65.901C64.9393 64.3519 64.1896 64.1193 63.6518 63.6539C63.1141 63.1782 62.8452 62.4078 62.8452 61.3426V57.899H61.7904V55.6964H62.8452V53.5868H65.4977V55.6964H67.235V57.899H65.4977V61.3737C65.4977 61.6322 65.5598 61.8183 65.6839 61.9321C65.808 62.0458 66.0148 62.1027 66.3043 62.1027H67.2505Z" fill="white"/>
</svg>
